<svg xmlns="http://www.w3.org/2000/svg" fill="none" viewBox="0 0 3000 3000"><path fill="#091C59" d="M1782.43 2670.64H1306.71C1296.07 2670.48 1295.74 2687.25 1306.71 2687.25H1782.43C1793.23 2687.25 1793.56 2670.48 1782.43 2670.64Z"/><path fill="#091C59" d="M826.326 2670.64H608.063C597.432 2670.48 597.266 2687.25 608.063 2687.25H826.326C828.516 2687.21 830.604 2686.32 832.152 2684.77C833.701 2683.22 834.589 2681.14 834.632 2678.95C834.632 2676.74 833.757 2674.63 832.199 2673.07C830.642 2671.52 828.529 2670.64 826.326 2670.64Z"/><path fill="#091C59" d="M2175.27 2694.73H2625.42C2627.62 2694.73 2629.74 2693.85 2631.29 2692.3C2632.85 2690.74 2633.73 2688.63 2633.73 2686.42C2633.68 2684.23 2632.79 2682.15 2631.25 2680.6C2629.7 2679.05 2627.61 2678.16 2625.42 2678.12H2175.27C2164.64 2678.12 2164.31 2694.73 2175.27 2694.73Z"/><path fill="#091C59" d="M2474.1 1603.25L2473.27 1603.58L2474.1 1603.25Z"/><path fill="#091C59" d="M2408.65 1692.11C2408.49 1691.95 2408.15 1691.61 2408.15 1691.45L2408.65 1692.11Z"/><path fill="#091C59" d="M2610.8 1567.87L2610.31 1567.04C2610.14 1566.87 2610.14 1567.04 2610.8 1567.87Z"/><path fill="#091C59" d="M2320.78 1593.94C2320.45 1594.61 2320.12 1595.6 2320.78 1593.94V1593.94Z"/><path fill="#091C59" d="M2709.47 1843.93C2732.06 1855.23 2754.32 1865.2 2761.96 1869.85C2955.47 1972.5 2880.73 1625.67 2702.33 1735.47C2680.07 1750.91 2660.3 1770.18 2641.03 1789.12C2599.01 1766.53 2550.51 1756.4 2505.82 1763.54C2434.23 1736.13 2349.19 1739.45 2278.09 1764.04C2303.05 1723.49 2335.46 1688.04 2373.6 1659.56C2413.64 1801.41 2638.21 1751.74 2534.56 1666.2C2607.98 1689.95 2661.13 1598.43 2613.96 1542.29C2577.58 1499.6 2504.16 1502.42 2468.78 1544.94C2452.34 1563.55 2441.04 1586.3 2432.24 1609.39C2413.24 1616.11 2395.11 1625.09 2378.25 1636.13C2416.63 1574.51 2385.4 1491.95 2305.83 1499.26C2272.61 1503.42 2242.71 1526.84 2229.42 1557.57C2205.67 1610.06 2271.78 1666.7 2309.32 1695.6C2301.85 1704.07 2261.81 1750.08 2253.68 1773.67C2184.08 1804.73 2126.77 1863.53 2061.82 1897.25C2054.51 1901.07 2037.41 1902.24 2030.93 1884.8C1997.04 1785.13 2047.04 1651.42 2061.82 1547.93C2067.3 1527.17 2066.64 1504.41 2076.94 1485.14C2127.43 1412.06 2235.4 1377.01 2322.11 1391.29C2348.52 1425.35 2406.99 1440.79 2447.69 1426.18C2459.81 1431.49 2470.78 1446.77 2477.92 1455.25C2489.38 1466.04 2506.99 1515.87 2524.43 1487.8C2528.41 1452.75 2511.8 1416.38 2484.56 1394.28C2513.63 1323.03 2402.67 1256.91 2341.05 1245.29C2344.2 1243.58 2347.16 1241.52 2349.85 1239.14C2368.29 1232.66 2387.22 1227.18 2406.16 1222.53C2429.08 1291.13 2517.95 1305.75 2581.9 1296.28C2626.25 1290.97 2669.44 1252.43 2661.96 1204.92C2654.32 1161.9 2606.15 1146.29 2567.78 1143.13C2507.65 1137.48 2434.73 1150.11 2402.01 1206.58C2392.04 1208.91 2382.24 1211.57 2372.28 1214.56C2406.33 1169.71 2448.19 1122.87 2433.24 1064.56C2408.82 1002.44 2319.62 1007.09 2278.43 1049.45C2215.47 1104.93 2248.19 1208.25 2323.61 1231.33C2284.42 1246.4 2247.4 1266.57 2213.48 1291.3C2206.5 1297.94 2169.63 1323.19 2162.82 1337.48C2124.28 1345.95 2126.11 1353.92 2063.82 1363.06C2061.33 1363.26 2058.82 1362.87 2056.51 1361.92C2054.2 1360.96 2052.15 1359.48 2050.53 1357.58C2032.42 1337.64 2030.76 1291.96 2023.29 1268.38C2010.16 1198.28 1995.21 1126.85 2001.36 1055.26C2015.65 925.367 1990.73 765.573 2094.05 667.073C2097.2 666.906 2099.86 664.249 2102.35 662.588C2106.79 659.611 2111.52 657.105 2116.47 655.113C2137.07 646.641 2159.33 643.818 2180.42 636.675C2216.85 624.391 2250.57 605.218 2279.75 580.199C2272.61 613.586 2270.12 649.299 2286.73 680.029C2354.34 788.994 2493.2 660.428 2401.51 575.88C2389.77 565.98 2375.81 559.082 2360.81 555.781C2457.16 527.377 2504.99 433.361 2395.03 381.702C2362.14 364.593 2322.11 377.55 2302.01 407.615C2284.57 332.369 2183.41 339.511 2137.07 384.36C2148.7 356.454 2172.95 334.196 2201.02 323.067C2203.84 322.735 2206.34 321.406 2209.82 320.575C2210.92 320.856 2212.06 320.867 2213.16 320.606C2214.26 320.346 2215.28 319.822 2216.14 319.08L2220.29 318.416C2258.49 312.768 2296.53 323.565 2334.57 321.24C2372.61 318.914 2403.84 285.859 2387.39 248.153C2357.66 172.243 2248.19 167.093 2210.82 239.35C2206.17 248.485 2188.23 289.181 2189.39 310.443C2177 315.769 2165.51 322.999 2155.34 331.871C2148.53 283.368 2127.1 227.888 2073.95 218.088C2042.55 212.939 2010.16 230.546 1994.88 258.12C1954.02 345.491 2058.5 412.1 2128.27 364.926C2091.89 424.226 2125.77 496.98 2149.03 514.089C2116.64 585.514 2036.41 638.004 1992.89 701.789C1963.82 563.422 1862 435.022 1719.31 406.12C1672.14 397.815 1624.8 380.706 1576.29 383.53C1568.82 384.194 1568.65 393.33 1566.83 397.649C1565.27 400.813 1563.49 403.865 1561.51 406.784C1549.88 421.9 1530.12 429.209 1511.35 428.71C1509.52 403.961 1486.93 386.187 1483.44 362.102C1479.95 338.017 1492.91 336.688 1511.18 331.206C1540.75 319.579 1553.54 285.527 1553.04 255.628C1554.37 188.023 1489.26 134.703 1435.77 194.169C1393.91 248.319 1415.5 344.329 1471.48 380.207C1477.63 396.486 1490.42 409.94 1494.4 427.215C1446.73 418.412 1404.21 389.177 1376.14 349.976C1382.12 293.998 1412.85 222.905 1369.99 175.233C1280.63 98.6578 1161.86 283.202 1299.4 360.607C1319.66 371.736 1345.91 378.214 1366.34 364.427C1382.11 385.248 1401.52 403.033 1423.64 416.917C1347.07 417.581 1270.83 499.305 1325.81 570.233C1363.68 611.593 1433.28 587.176 1448.56 536.513C1459.36 509.936 1451.72 480.369 1445.74 454.623C1444.85 448.894 1445.3 443.037 1447.06 437.514C1448.31 435.296 1449.82 433.233 1451.55 431.368C1495.24 453.294 1565.17 452.464 1583.27 400.306C1746.39 406.452 1865.49 525.55 1911.33 677.371C1937.41 819.226 1906.68 969.053 1857.35 1102.93C1849.21 1129.18 1835.75 1150.94 1805.85 1134.83C1750.21 1106.42 1715.66 1050.11 1662.84 1017.56C1612.67 1004.93 1746.39 1178.51 1762.83 1182.83C1823.29 1233.49 1852.53 1210.9 1882.1 1302.93C1914.65 1413.72 1909.5 1531.49 1905.35 1645.77C1906.51 1661.55 1899.54 1679.32 1881.76 1680.98C1860.5 1681.48 1819.47 1635.8 1773.3 1617.53C1753.53 1581.65 1731.11 1545.27 1704.69 1512.55C1715.72 1513.21 1726.78 1512.88 1737.75 1511.56C1792.73 1507.9 1832.26 1439.3 1788.08 1397.61C1734.26 1347.11 1655.2 1404.75 1663 1467.7C1654.8 1460.06 1646.21 1452.85 1637.26 1446.11C1654.86 1407.41 1650.71 1346.28 1629.78 1311.23C1576.79 1240.47 1432.78 1341.63 1520.48 1428.83C1549.22 1456.57 1591.74 1460.73 1629.78 1460.06C1636.87 1466.26 1643.84 1472.58 1650.71 1479C1610.18 1464.55 1556.69 1456.91 1518.82 1489.46C1513.6 1493.84 1509.77 1499.64 1507.79 1506.16C1505.81 1512.68 1505.78 1519.63 1507.69 1526.17C1509.33 1531.34 1511.56 1536.3 1514.34 1540.96C1535.6 1574.84 1581.78 1587.96 1619.48 1577.5C1648.88 1568.53 1671.31 1546.27 1697.05 1530.33C1716.61 1554.91 1734.16 1581.01 1749.54 1608.4C1684.1 1587.96 1609.68 1600.92 1553.87 1640.45C1551.72 1623.05 1545.08 1606.51 1534.6 1592.45C1442.08 1471.03 1327.14 1632.98 1463.68 1720.18C1436.43 1718.03 1403.71 1701.25 1386.6 1677.99C1359.19 1642.78 1360.52 1593.11 1343.58 1550.59C1313.85 1482.15 1241.92 1510.56 1226.64 1572.18C1210.2 1626.5 1249.73 1686.3 1305.38 1694.27C1328.96 1696.43 1354.38 1700.42 1377.13 1692.28C1385.57 1702.75 1395.81 1711.64 1407.37 1718.52C1380.12 1729.98 1361.52 1739.12 1334.11 1781.98C1307.37 1827.66 1337.27 1885.96 1388.6 1894.26C1480.62 1904.56 1517.33 1788.29 1446.57 1733.64C1484.27 1741.45 1525.8 1733.31 1557.69 1709.89C1566.16 1704.4 1594.57 1679.99 1594.73 1665.54C1819.97 1599.09 1861.33 1856.89 1868.64 2045.75C1861.33 2138.94 1831.43 2231.46 1851.03 2325.47C1875.29 2458.19 1863.82 2571.48 1820.64 2699.38C1817.65 2709.68 1833.59 2714 1836.58 2703.7C1890.4 2536.26 1888.08 2453.38 1862.5 2282.45C1854.85 2210.2 1875.95 2139.6 1883.59 2068.18C1885.75 1855.89 1831.6 1549.93 1555.2 1662.05L1554.37 1660.88C1649.22 1588.96 1753.7 1607.07 1840.9 1680.15C1872.96 1712.05 1922.29 1697.93 1921.8 1649.76C1923.95 1549.59 1937.91 1367.38 1883.26 1263.06C1869.42 1236.95 1847.99 1215.64 1821.8 1201.93C1759.68 1169.38 1716.49 1114.06 1682.6 1052.6C1725.29 1084 1785.59 1176.02 1844.72 1151.94C1855.35 1145.96 1861.67 1135.16 1866.48 1124.53C1961.16 894.305 1992.89 578.87 1748.38 431.368C1875.29 471.566 1957.67 595.647 1980.26 722.552C1972.85 736.181 1967.74 750.942 1965.15 766.238C1965.32 776.869 1981.93 777.035 1981.76 766.238C1994.88 687.836 2103.18 625.38 2143.88 554.785C2120.96 642.655 2057.5 662.255 2025.78 732.85C2001.71 799.707 1990.22 870.442 1991.89 941.48C1978.6 1077.85 1983.75 1217.05 2026.11 1348.27C2028.19 1355.05 2031.83 1361.25 2036.74 1366.38C2081.92 1412.39 2170.12 1311.4 2306.16 1348.44C2307.4 1357.12 2309.57 1365.64 2312.64 1373.85C2220.62 1361.23 2089.73 1406.41 2055.18 1495.94C2042.78 1559.06 2030.43 1622.24 2018.14 1685.47C2006.01 1748.92 1993.05 1815.7 2011.49 1879.15C2020.13 1918.18 2058 1924.66 2087.74 1902.24C2180.92 1842.44 2267.96 1757.06 2386.56 1761.05C2451.51 1761.05 2521.94 1775.5 2570.11 1821.51C2562.7 1828.86 2555.98 1836.87 2550.01 1845.43C2235.07 1633.81 2050.69 2078.31 2065.81 2334.61C2067.8 2454.04 2146.37 2566.16 2114.15 2686.42C2111.32 2697.18 2107.88 2707.78 2103.85 2718.15C2100.86 2728.12 2116.8 2733.27 2119.79 2722.63C2184.91 2556.36 2050.53 2424.47 2086.41 2231.46C2112.65 2002.73 2272.78 1677.33 2540.87 1860.05C2439.22 2042.6 2724.75 2129.47 2668.61 1876.99C2664.14 1855.82 2658.32 1834.96 2651.17 1814.53C2694.19 1843.1 2727.08 1885.96 2734.88 1934.79C2734.72 1938.61 2728.41 1947.58 2726.58 1949.91C2682.56 2008.54 2686.55 2108.87 2730.4 2166.51C2758.14 2199.73 2815.78 2211.19 2847.67 2177.97C2907.97 2112.53 2796.68 1985.29 2750.83 1934.63C2746.51 1900.91 2731.4 1870.01 2709.47 1843.93ZM2451.01 1724.84C2449.85 1724.34 2451.18 1725 2451.51 1725.17L2451.01 1724.84ZM2510.81 1534.31C2547.02 1518.86 2596.85 1533.32 2610.8 1568.03C2614.71 1578.06 2616.03 1588.92 2614.62 1599.59C2614.62 1599.92 2614.46 1600.26 2614.46 1600.59C2614.43 1600.3 2614.49 1600.01 2614.62 1599.76C2614.29 1601.09 2614.29 1601.09 2614.46 1600.92C2612.73 1612.41 2608.22 1623.3 2601.34 1632.65C2601.34 1632.48 2601.5 1632.48 2601.5 1632.31C2563.46 1679.99 2498.18 1633.81 2455.33 1615.04C2460.48 1609.72 2467.45 1606.57 2474.1 1603.41C2496.85 1594.11 2523.6 1590.95 2546.85 1600.59C2556.49 1608.23 2568.28 1594.77 2557.82 1587.47C2526.09 1572.18 2487.72 1577 2457.32 1593.11C2469.11 1569.03 2485.39 1544.94 2510.81 1534.31ZM2437.39 1625.17C2441.87 1627.17 2446.52 1628.66 2451.01 1630.99C2442.92 1629.8 2434.76 1629.19 2426.59 1629.16C2430.08 1627.66 2433.73 1626.33 2437.39 1625.17ZM2403 1647.76C2448.02 1639.46 2507.82 1656.57 2537.88 1692.78C2561.64 1719.35 2522.27 1728.66 2501.84 1732.14C2459.31 1739.45 2406.33 1706.9 2391.88 1661.72C2424.76 1671.18 2453.83 1690.45 2481.24 1710.72C2484.73 1713.37 2490.71 1711.38 2492.54 1707.73C2501.34 1691.45 2417.79 1652.08 2403 1647.76ZM2307 1673.34C2280.92 1650.59 2226.1 1601.75 2244.54 1563.88C2256.33 1538.96 2277.76 1520.53 2306.83 1515.71H2306.5C2339.22 1510.72 2374.43 1533.65 2377.76 1567.7C2383.24 1606.24 2354.17 1649.42 2326.26 1677.83C2316.63 1651.42 2310.15 1620.85 2320.78 1593.61C2323.11 1582.48 2342.38 1575.51 2336.73 1565.37C2334.57 1561.89 2329.25 1559.73 2325.43 1562.38C2291.22 1587.96 2295.87 1636.97 2307 1673.34ZM2482.4 1209.41C2502.31 1212.01 2521.2 1219.74 2537.22 1231.83C2542.39 1235.92 2547.22 1240.42 2551.67 1245.29C2558.98 1253.09 2570.94 1241.3 2563.3 1233.66C2524.93 1186.98 2457.32 1187.98 2428.42 1198.28C2467.62 1153.43 2577.25 1144.13 2628.41 1180.01C2628.24 1179.84 2628.08 1179.68 2628.08 1179.51C2631.07 1182.5 2635.05 1185.66 2637.38 1189.14C2652.5 1208.25 2646.52 1234.49 2633.06 1251.1C2606.65 1284.82 2553.66 1284.99 2514.46 1280C2484.06 1275.68 2453 1264.89 2433.24 1239.14L2433.57 1239.64C2429.58 1234.41 2426.24 1228.72 2423.6 1222.7C2423.6 1222.86 2423.77 1223.03 2423.77 1223.2C2422.73 1220.65 2421.85 1218.04 2421.11 1215.39C2422.44 1215.89 2466.96 1207.25 2482.4 1209.41ZM2288.56 204.301C2328.09 199.816 2374.93 230.214 2374.77 272.571C2373.94 285.029 2364.47 294.995 2353.17 299.646H2353.34C2347.28 302.138 2340.91 303.813 2334.4 304.629C2301.51 306.789 2268.29 298.982 2235.24 300.31C2254.17 282.703 2280.25 268.086 2302.01 277.222C2312.31 280.212 2316.8 264.099 2306.5 261.276C2267.79 247.987 2233.08 277.554 2207.83 303.965L2206.5 304.297C2212.81 259.614 2238.56 208.952 2288.56 204.301ZM1473.48 332.867C1471.81 304.463 1469.32 272.239 1486.6 248.153L1486.1 248.651C1490.09 242.339 1502.38 237.855 1497.39 228.885C1495.24 225.397 1489.75 223.237 1486.1 225.895C1449.89 253.469 1454.54 304.961 1458.03 345.325C1419.32 299.148 1414.18 186.03 1492.74 185.697L1491.75 185.365C1502.8 187.3 1512.68 193.429 1519.32 202.474C1528.29 214.268 1533.27 228.719 1535.6 243.336C1537.81 258.698 1536.04 274.37 1530.45 288.849C1530.62 288.849 1530.62 288.849 1530.62 288.683C1530.62 288.517 1530.28 289.68 1530.12 289.68C1525.47 300.809 1517.33 310.775 1506.03 315.592L1505.2 315.924H1505.37C1493.74 319.579 1480.62 322.236 1473.48 332.867ZM1361.19 339.511C1350.09 329.152 1341.27 316.594 1335.29 302.638C1329.31 288.682 1326.31 273.633 1326.47 258.452C1325.64 250.977 1331.29 239.183 1321.49 236.194C1317.5 235.363 1311.85 237.356 1311.19 242.007C1308.33 262.483 1310.53 283.347 1317.59 302.777C1324.66 322.206 1336.38 339.609 1351.72 353.464C1340.26 357.949 1327.63 354.959 1316.84 350.474C1241.26 320.409 1227.8 215.098 1305.21 178.555C1332.45 166.097 1358.36 177.226 1369.66 204.633L1369.99 205.298C1385.11 243.336 1365.84 298.982 1361.19 339.511ZM1338.6 475.552L1338.93 475.22L1338.6 475.552ZM1431.28 535.683L1431.62 534.852C1431.46 535.11 1431.35 535.39 1431.28 535.683ZM1367.17 574.053H1367.33C1358.69 572.942 1350.49 569.561 1343.58 564.253C1340.82 562.04 1338.36 559.471 1336.27 556.612C1336.6 557.276 1335.77 556.28 1335.61 556.114C1321.16 534.852 1321.65 512.594 1329.96 490.668C1329.79 490.668 1330.29 489.837 1330.29 489.671C1346.4 455.287 1385.44 436.019 1422.31 433.361C1396.26 454.985 1374.08 480.879 1356.7 509.936C1351.39 519.404 1365.34 527.543 1370.99 518.408C1386.39 492.347 1405.97 469.001 1428.96 449.308C1429.29 463.925 1434.61 477.712 1436.93 491.997C1436.93 491.831 1436.77 491.831 1436.77 491.665C1443.91 534.022 1412.85 580.033 1367.17 574.053ZM1625.79 1429.5C1617.82 1389.8 1587.09 1356.25 1551.05 1339.3C1541.41 1334.15 1533.27 1348.11 1542.58 1353.59C1551.35 1357.57 1559.66 1362.53 1567.33 1368.37C1590.08 1386.31 1609.52 1413.89 1611.01 1443.45C1568.99 1442.62 1528.12 1426.68 1515.17 1391.96C1490.92 1342.79 1545.23 1302.26 1591.74 1304.26C1636.26 1314.72 1636.43 1392.62 1625.79 1429.5ZM1604.53 1563.88C1561.35 1566.04 1522.64 1551.92 1522.64 1514.05C1522.48 1471.36 1628.78 1468.53 1662.34 1498.93C1631.61 1499.76 1582.44 1508.23 1558.85 1528.17C1551.21 1535.64 1563.01 1547.43 1570.65 1539.96C1598.72 1515.87 1647.39 1503.08 1683.77 1519.2C1657.85 1536.47 1630.78 1562.55 1604.53 1563.88ZM1739.58 1440.63C1738.47 1438.74 1736.66 1437.37 1734.54 1436.81C1732.43 1436.25 1730.18 1436.55 1728.28 1437.64C1711.51 1448.27 1691.24 1466.54 1685.09 1483.65C1682.6 1478.67 1665.33 1447.6 1693.9 1418.37C1695.82 1416.05 1697.88 1413.83 1700.04 1411.73C1703.43 1408.45 1707.29 1405.7 1711.51 1403.59C1801.87 1357.91 1833.59 1513.88 1698.72 1494.45C1699.76 1492.2 1700.59 1489.87 1701.21 1487.47C1707.19 1476.67 1716.65 1467.04 1727.95 1457.9C1730.11 1455.74 1745.56 1448.93 1739.58 1440.63ZM1310.03 1678.33C1248.9 1670.52 1218.17 1596.1 1257.04 1547.43C1267.5 1535.14 1282.29 1521.85 1302.55 1529C1345.24 1552.75 1335.11 1611.72 1355.21 1654.07C1343.25 1645.44 1332.45 1638.79 1321.99 1626C1315.71 1617.19 1312.13 1606.75 1311.69 1595.94C1311.19 1585.14 1295.41 1585.14 1295.08 1595.94C1294.08 1636.47 1332.29 1660.88 1365.01 1676.83L1366 1678.49C1349.73 1682.48 1328.13 1679.65 1310.03 1678.33ZM1462.51 1835.3C1452.88 1859.71 1427.46 1876.49 1409.19 1878.48C1404.38 1878.98 1380.46 1882.64 1363.35 1865.2C1319.5 1833.97 1346.24 1770.35 1390.92 1747.26C1394.74 1743.61 1404.38 1739.79 1413.01 1735.63C1413.35 1741.11 1412.02 1747.76 1412.85 1753.07C1411.02 1772.67 1400.55 1796.26 1383.45 1811.54C1375.81 1818.85 1387.6 1830.81 1395.07 1823.17C1417.83 1802.57 1429.79 1772.51 1430.12 1742.11L1435.1 1745.6H1434.94C1461.52 1763.37 1475.8 1809.38 1462.51 1835.3ZM1516.33 1709.89C1504.87 1699.26 1482.45 1672.01 1474.64 1656.23C1466.83 1640.45 1469.32 1626 1477.3 1614.87C1479.95 1613.21 1484.6 1604.74 1479.46 1600.75C1477.87 1599.22 1475.76 1598.36 1473.56 1598.36C1471.36 1598.36 1469.24 1599.22 1467.66 1600.75C1450.05 1618.86 1450.72 1648.26 1462.84 1669.19C1470.32 1680.15 1484.27 1701.91 1497.89 1715.37C1450.39 1706.4 1402.55 1645.27 1421.15 1596.93H1420.99C1421.32 1596.27 1421.65 1595.44 1421.32 1596.44C1427.63 1582.98 1434.77 1575.01 1448.06 1568.7C1447.56 1568.86 1446.9 1569.19 1447.9 1568.7C1448.89 1568.2 1448.23 1568.7 1448.23 1568.53C1448.23 1568.36 1448.23 1568.7 1448.06 1568.7C1503.21 1549.93 1581.44 1642.28 1516.33 1709.89ZM1572.81 1672.84C1565.03 1683.28 1555.33 1692.13 1544.24 1698.92C1547.06 1693.34 1549.34 1687.5 1551.05 1681.48C1558.52 1678.33 1565.66 1675.34 1572.81 1672.84ZM2317.63 414.425C2330.25 400.14 2346.53 382.533 2384.9 395.323C2405.33 404.957 2425.1 409.276 2440.05 450.138C2453.83 503.292 2364.47 544.486 2322.28 547.31C2321.66 547.654 2320.98 547.88 2320.28 547.974C2343.24 521.93 2360.85 491.621 2372.11 458.776C2375.1 448.477 2358.99 443.992 2356.16 454.291C2345.61 484.62 2329.25 512.604 2307.99 536.679C2299.02 495.485 2290.22 450.304 2317.63 414.425ZM2309.65 593.488C2318.41 602.138 2325.4 612.405 2330.25 623.719C2334.25 632.881 2336.66 642.653 2337.39 652.621C2337.39 663.418 2354 663.418 2354 652.621C2352.01 621.726 2336.4 593.155 2312.48 573.721C2346.69 561.927 2394.2 576.545 2408.49 613.088H2408.32C2408.65 613.919 2408.98 614.417 2408.49 613.42C2448.19 729.196 2255.67 750.624 2296.2 582.857C2300.85 586.013 2304.84 590.498 2309.65 593.488ZM2030.43 349.976H2030.59C2030.57 349.962 2030.54 349.954 2030.51 349.954C2030.48 349.954 2030.45 349.962 2030.43 349.976ZM2113.48 340.342C2116.97 341.339 2121.62 343.664 2126.44 345.491C2125.94 345.824 2123.61 347.651 2125.44 346.322C2071.62 391.17 1982.26 344.993 2006.34 272.405C2021.63 236.194 2067.47 221.244 2098.03 246.492C2124.11 266.591 2133.58 299.978 2138.4 331.206C2110.49 324.728 2086.07 305.792 2074.45 279.381C2072.62 275.561 2066.47 274.232 2062.99 276.557C2046.54 292.67 2097.87 335.359 2113.48 340.342ZM2130.76 437.514H2130.92C2136.4 434.468 2142.06 431.751 2147.87 429.375H2148.03C2162.82 423.395 2177.93 417.249 2193.71 414.259C2197.58 413.927 2201.47 413.927 2205.34 414.259C2206 414.425 2207.83 414.924 2205.67 414.259C2213.81 415.256 2223.61 419.741 2226.6 422.232C2228.68 423.902 2230.58 425.796 2232.25 427.88H2232.41C2233.74 431.202 2239.89 439.84 2246.53 435.355C2248.39 434.218 2249.73 432.397 2250.26 430.285C2250.78 428.172 2250.46 425.936 2249.36 424.059C2237.73 401.967 2209.49 393.994 2186.24 398.811C2174.11 402.466 2148.2 409.442 2131.26 418.412C2140.39 400.306 2159.49 385.025 2178.6 377.716C2212.48 361.936 2254.01 361.437 2275.44 389.343C2285.57 401.635 2289.39 419.076 2283.24 434.358C2260.82 480.868 2190.39 492.827 2152.85 462.928C2147.24 458.491 2142.17 453.418 2137.73 447.813C2136.07 445.653 2133.75 441.002 2130.76 437.514ZM2132.09 435.189C2132.27 434.886 2132.38 434.545 2132.42 434.192C2132.44 434.372 2132.43 434.557 2132.37 434.73C2132.31 434.903 2132.22 435.06 2132.09 435.189ZM2169.63 505.95C2170.12 499.472 2161.49 495.817 2156.5 498.807C2149.54 491.102 2143.83 482.359 2139.56 472.895C2156.34 485.519 2177.93 495.319 2188.06 494.821C2220.45 501.133 2259.99 486.848 2283.24 462.43C2281.25 490.668 2286.9 519.238 2293.21 546.646C2259.99 577.375 2222.78 605.281 2179.26 619.566C2160.16 626.21 2140.06 629.366 2120.79 635.845C2145.37 604.617 2166.14 566.911 2169.63 505.95ZM2193.71 1328.51C2223.11 1301.93 2257.5 1280.17 2295.7 1261.4C2303.51 1282.66 2302.68 1307.08 2304.34 1331.16C2267.87 1324.06 2230.47 1323.16 2193.71 1328.51ZM2508.65 1482.49C2508.48 1483.15 2508.15 1483.48 2508.65 1482.49V1482.49ZM2489.55 1422.85C2498.52 1433.32 2505.82 1453.09 2507.98 1469.53C2495.86 1451.92 2482.07 1430.83 2465.13 1417.21C2468.85 1414.57 2472.25 1411.5 2475.26 1408.07C2480.44 1412.58 2485.22 1417.53 2489.55 1422.85ZM2261.98 1113.57C2285.9 983.338 2533.9 1011.24 2355.17 1208.91C2342.21 1175.94 2337.81 1140.22 2342.38 1105.09C2342.04 1095.96 2352.18 1080.84 2340.22 1076.19C2335.9 1075.19 2330.91 1077.35 2329.92 1082.01C2319.18 1127.53 2323.2 1175.29 2341.38 1218.38C2292.88 1210.57 2256.17 1163.07 2261.98 1113.57ZM2336.56 1278.01C2347.22 1286.65 2356.76 1296.58 2364.97 1307.58C2374.43 1319.37 2388.06 1340.96 2398.02 1356.41C2403.5 1365.71 2417.95 1357.41 2412.47 1348.11C2392.37 1317.71 2373.6 1284.49 2343.7 1262.73C2395.7 1275.35 2447.52 1309.57 2471.27 1355.58C2471.11 1354.92 2474.43 1364.22 2474.43 1366.88C2474.93 1366.54 2474.1 1401.59 2441.38 1410.56C2403.5 1426.51 2344.2 1402.76 2329.25 1371.53C2326.03 1363.19 2323.85 1354.49 2322.78 1345.62C2318.95 1319.37 2321.11 1291.63 2314.47 1266.05C2322.43 1268.82 2329.89 1272.85 2336.56 1278.01ZM2536.55 1777.66C2561.39 1778.16 2585.93 1783.16 2608.98 1792.44C2599.51 1797.62 2590.56 1803.69 2582.23 1810.55C2568.44 1797.72 2553.09 1786.67 2536.55 1777.66ZM2634.22 2007.88C2615.79 2022 2588.88 2020.17 2564.96 2002.4C2498.85 1948.41 2554.66 1834.8 2619.94 1805.9C2621.93 1854.4 2626.08 1909.71 2591.04 1942.43C2583.4 1949.91 2595.19 1961.7 2602.83 1954.23C2637.55 1922.67 2638.38 1870.84 2637.71 1827.16C2657.48 1887.95 2677.08 1971.34 2634.22 2007.88ZM2675.42 1804.23C2717.61 1793.1 2757.14 1798.75 2795.01 1823.17C2804.15 1828.65 2812.62 1814.2 2803.32 1808.72C2761.96 1781.31 2711.13 1775.5 2663.62 1790.12C2695.02 1759.88 2732.06 1724.67 2779.4 1732.64C2827.24 1737.63 2866.61 1786.79 2859.13 1837.12C2857.47 1848.09 2853.98 1862.04 2842.69 1872.5C2820.26 1879.65 2771.76 1873.17 2675.42 1804.23ZM2845.01 2152.23V2152.56C2842.3 2158.32 2838.42 2163.45 2833.61 2167.62C2828.81 2171.8 2823.19 2174.93 2817.11 2176.81C2716.78 2208.54 2688.71 2036.45 2733.39 1969.01C2737.49 2027.8 2763.87 2082.82 2807.14 2122.83C2814.78 2130.47 2826.57 2118.67 2818.93 2111.03C2776.91 2073.16 2748.84 2013.69 2750 1957.55C2785.88 2001.24 2866.94 2095.09 2845.01 2152.23Z"/><path fill="#091C59" d="M2637.55 1189.14H2637.38L2636.88 1188.31C2637.01 1188.66 2637.24 1188.95 2637.55 1189.14Z"/><path fill="#474CDC" d="M1687.42 552.625C1693.4 561.263 1703.2 567.741 1712 573.389C1720.81 579.036 1739.58 590.664 1750.71 596.145C1772.3 606.942 1817.31 614.085 1823.46 601.959C1824.13 600.796 1825.95 602.125 1827.12 602.623L1835.09 585.016C1855.52 540.666 1841.57 490.336 1803.86 472.895L1799.54 470.901C1762.83 453.959 1716.49 475.552 1696.56 518.74L1687.09 539.171C1688.75 539.669 1686.26 550.798 1687.42 552.625Z"/><path fill="#BEE1FF" d="M1827.95 617.573C1826.95 618.238 1823.46 613.089 1821.97 613.089C1794.88 613.836 1768.04 607.782 1743.9 595.481C1730.9 589.125 1718.3 581.968 1706.19 574.054C1695.89 567.409 1690.91 558.938 1683.77 548.639C1682.94 547.311 1675.79 548.473 1675.79 547.311C1622.31 552.128 1573.8 583.189 1550.55 633.52C1515.17 710.261 1552.04 802.782 1633.1 839.989C1714.16 877.197 1808.18 845.305 1843.56 768.564C1866.81 718.4 1858.84 661.425 1827.95 617.573Z"/><path fill="#474CDC" d="M1703.2 865.568C1493.24 864.738 1460.35 558.438 1677.12 537.177C1731.94 383.529 1914.15 469.239 1834.76 609.765C1916.31 713.581 1832.6 870.884 1703.2 865.568ZM1772.8 475.053C1702.04 479.04 1703.86 554.784 1684.1 556.611C1531.78 559.601 1497.56 771.718 1637.26 831.018C1708.68 865.07 1801.2 837.995 1834.59 764.41C1856.52 716.737 1849.21 660.427 1815.32 617.074C1814.2 615.629 1813.5 613.904 1813.3 612.087C1813.09 610.271 1813.39 608.433 1814.16 606.775L1826.12 580.863C1848.54 536.678 1825.45 475.551 1772.8 475.053Z"/><path fill="#fff" d="M1817.98 615.082H1817.81C1769.64 614.418 1715.33 590.166 1682.77 554.453C1681.89 553.462 1681.44 552.162 1681.51 550.838C1681.59 549.514 1682.19 548.275 1683.18 547.394C1684.18 546.513 1685.48 546.062 1686.8 546.139C1688.12 546.217 1689.36 546.818 1690.24 547.809C1720.97 581.529 1772.3 604.617 1817.98 605.116C1819.3 605.116 1820.57 605.641 1821.5 606.575C1822.44 607.51 1822.96 608.777 1822.96 610.099C1822.92 611.407 1822.38 612.651 1821.46 613.577C1820.53 614.502 1819.29 615.041 1817.98 615.082Z"/><path fill="#fff" d="M1838.58 573.222C1790.41 572.557 1736.09 548.306 1703.53 512.593C1702.66 511.619 1702.21 510.342 1702.27 509.037C1702.33 507.732 1702.91 506.504 1703.86 505.616C1704.34 505.138 1704.91 504.764 1705.54 504.519C1706.16 504.275 1706.84 504.164 1707.51 504.196C1708.18 504.227 1708.84 504.399 1709.44 504.701C1710.05 505.003 1710.58 505.428 1711.01 505.949C1741.74 539.668 1793.06 562.757 1838.74 563.255C1839.4 563.266 1840.04 563.406 1840.64 563.666C1841.24 563.927 1841.79 564.303 1842.24 564.774C1842.7 565.244 1843.05 565.799 1843.29 566.408C1843.54 567.017 1843.65 567.667 1843.64 568.321C1843.63 568.976 1843.49 569.622 1843.23 570.222C1842.97 570.823 1842.59 571.366 1842.12 571.821C1841.65 572.276 1841.1 572.634 1840.49 572.874C1839.88 573.114 1839.23 573.233 1838.58 573.222Z"/><path fill="#474CDC" d="M1716.82 729.861C1709.18 730.086 1701.63 728.127 1695.06 724.213C1689.65 720.646 1685.19 715.796 1682.1 710.094C1671.47 709.596 1661.01 706.606 1653.7 701.124C1638.59 689.497 1638.92 667.903 1645.56 652.622C1652.21 637.34 1662.5 632.024 1676.46 623.719L1677.45 623.055L1726.79 592.657L1727.12 592.325C1728.28 591.681 1729.64 591.494 1730.93 591.802C1732.22 592.109 1733.35 592.888 1734.1 593.986C1734.77 595.111 1734.98 596.458 1734.67 597.733C1734.35 599.008 1733.55 600.109 1732.43 600.796L1732.1 601.129L1682.6 631.526L1681.61 632.191C1668.32 640.164 1659.51 645.479 1654.7 656.608C1649.88 667.737 1648.22 684.348 1659.68 693.151C1665 696.711 1671.09 698.934 1677.45 699.63C1674.58 691.313 1673.5 682.481 1674.3 673.717C1676.46 654.449 1689.41 646.808 1699.88 646.143C1710.34 645.479 1724.13 653.286 1728.78 665.578C1733.43 677.87 1731.11 695.975 1713.67 704.613C1707.51 707.554 1700.87 709.355 1694.06 709.928C1695.83 712.201 1697.97 714.166 1700.38 715.742C1712.83 723.549 1733.27 718.732 1743.9 712.918C1754.53 707.104 1756.69 699.962 1755.86 681.856C1755.03 663.751 1750.21 633.685 1745.56 605.614C1745.39 604.948 1745.37 604.257 1745.49 603.582C1745.6 602.907 1745.86 602.263 1746.23 601.69C1746.61 601.118 1747.1 600.629 1747.67 600.254C1748.24 599.88 1748.89 599.627 1749.56 599.513C1750.24 599.399 1750.93 599.424 1751.6 599.589C1752.26 599.754 1752.88 600.054 1753.43 600.471C1753.97 600.887 1754.42 601.411 1754.76 602.011C1755.09 602.61 1755.29 603.271 1755.36 603.952C1760.01 632.357 1764.99 661.923 1765.82 681.358C1766.65 700.792 1764.16 712.918 1748.71 721.555C1738.93 726.906 1727.97 729.759 1716.82 729.861ZM1701.71 655.944H1700.54C1693.57 656.442 1685.76 661.591 1684.26 674.714C1683.55 683.397 1684.98 692.123 1688.42 700.128C1695.62 700.134 1702.74 698.664 1709.35 695.809C1720.97 689.829 1722.8 677.87 1719.48 669.066C1716.16 660.262 1709.35 655.944 1701.71 655.944Z"/><path fill="#091C59" d="M2643.19 1199.11C2643.03 1198.78 2643.03 1198.45 2642.86 1198.11C2642.7 1197.78 2643.03 1198.78 2643.19 1199.11Z"/><path fill="#091C59" d="M2842.35 1870.01H2842.69C2842.69 1869.97 2842.7 1869.93 2842.74 1869.89C2842.77 1869.86 2842.81 1869.85 2842.85 1869.85C2843.35 1869.35 2842.35 1869.68 2842.35 1870.01Z"/><path fill="#474CDC" d="M2312.81 1937.62C2332.58 1952.73 2361.15 1958.05 2384.57 1965.36C2407.99 1972.67 2453.5 1967.18 2456.66 1954.06C2456.99 1952.73 2459.15 1953.56 2460.31 1953.73C2499.51 1814.53 2324.44 1779.98 2309.49 1924.66C2311.15 1924.83 2311.31 1936.29 2312.81 1937.62Z"/><path fill="#BEE1FF" d="M2464.63 1968.02C2463.8 1969.01 2459.32 1964.86 2457.82 1965.19C2416.96 1976.82 2375.1 1968.18 2336.06 1954.23C2324.6 1950.08 2317.79 1942.93 2308.49 1934.63C2307.16 1933.63 2300.68 1936.29 2300.19 1935.13C2149.53 1983.13 2169.79 2201.73 2326.93 2229.8C2482.57 2264.18 2585.22 2070.34 2464.63 1968.02Z"/><path fill="#474CDC" d="M2360.15 2243.09C2172.95 2243.75 2114.98 1987.61 2299.19 1924.99C2315.47 1765.03 2513.46 1801.08 2469.45 1958.88C2588.05 2053.73 2509.48 2248.73 2360.15 2243.09ZM2390.55 1840.94C2340.88 1842.44 2322.94 1891.61 2317.63 1934.79C2317.23 1936.57 2316.36 1938.21 2315.1 1939.53C2313.84 1940.85 2312.24 1941.79 2310.48 1942.27C2257.83 1957.38 2218.63 1998.74 2208.33 2050.07C2191.55 2127.64 2251.18 2206.38 2328.75 2220C2476.59 2254.21 2573.76 2062.69 2452.34 1970.67C2450.89 1969.53 2449.79 1968.01 2449.15 1966.28C2448.5 1964.55 2448.34 1962.68 2448.68 1960.87C2466.12 1906.22 2451.84 1842.44 2390.55 1840.94Z"/><path fill="#fff" d="M2416.79 1972C2394.37 1974.16 2307.83 1955.89 2307.49 1933.63C2307.86 1933.08 2308.33 1932.61 2308.88 1932.25C2309.44 1931.88 2310.05 1931.63 2310.7 1931.51C2311.35 1931.38 2312.02 1931.39 2312.67 1931.53C2313.31 1931.66 2313.93 1931.93 2314.47 1932.3C2352.34 1957.88 2407.66 1968.35 2452.01 1958.38C2453.28 1958.08 2454.63 1958.3 2455.75 1958.98C2456.87 1959.66 2457.67 1960.76 2457.99 1962.04C2459.48 1973.16 2425.26 1971 2416.79 1972Z"/><path fill="#fff" d="M2427.09 1926.49C2404.83 1928.48 2318.29 1910.38 2317.96 1888.12C2318.31 1887.55 2318.78 1887.06 2319.33 1886.68C2319.88 1886.3 2320.5 1886.04 2321.15 1885.92C2321.81 1885.79 2322.49 1885.81 2323.14 1885.96C2323.79 1886.11 2324.4 1886.39 2324.94 1886.79C2362.64 1912.37 2417.95 1922.83 2462.47 1912.7C2463.77 1912.45 2465.11 1912.71 2466.22 1913.42C2467.34 1914.13 2468.13 1915.24 2468.45 1916.52C2469.78 1927.65 2435.73 1925.49 2427.09 1926.49Z"/><path fill="#474CDC" d="M2371.78 2104.55C2361.15 2104.72 2351.68 2099.9 2344.37 2092.1C2311.98 2100.07 2289.22 2075.32 2295.37 2044.59C2300.68 2017.68 2340.05 1991.44 2360.81 1967.19C2365.3 1962.53 2372.44 1969.51 2367.79 1974.16C2353.34 1988.78 2338.22 2004.06 2326.6 2015.52C2314.97 2026.98 2307.16 2034.29 2305.17 2046.42C2301.18 2066.02 2312.98 2087.45 2337.39 2082.96C2310.32 2044.26 2347.36 2001.57 2379.42 2037.78C2393.37 2056.05 2380.41 2082.96 2355.83 2089.11C2370.12 2101.4 2394.37 2090.27 2405 2080.47C2426.76 2061.53 2391.88 2006.88 2381.74 1975.66C2379.09 1969.68 2388.55 1965.69 2390.88 1971.67C2411.97 2027.81 2457.16 2092.43 2371.78 2104.55ZM2354.83 2034.46C2332.41 2034.13 2335.73 2067.01 2348.02 2080.97C2378.92 2075.98 2386.23 2039.44 2354.83 2034.46Z"/><path fill="#474CDC" d="M2196.7 735.674C2218.29 748.132 2247.36 749.461 2271.61 753.614C2295.87 757.767 2340.05 746.139 2341.38 732.685C2341.55 731.356 2343.87 732.02 2345.03 732.02C2365.13 588.671 2187.07 578.04 2191.55 723.383C2193.21 723.383 2195.04 734.512 2196.7 735.674Z"/><path fill="#BEE1FF" d="M2351.35 745.475C2350.52 746.472 2345.53 742.984 2344.04 743.648C2305.17 760.757 2262.48 757.601 2221.95 749.13C2209.99 746.472 2202.35 740.492 2191.88 733.35C2190.56 732.519 2184.41 736.173 2183.91 735.011C2041.06 802.782 2090.39 1016.73 2249.86 1023.37C2408.82 1036.49 2484.56 830.522 2351.35 745.475Z"/><path fill="#474CDC" d="M2260.65 1033.67C2085.74 1035.33 2019.13 804.276 2181.59 725.043C2176.27 564.419 2377.26 573.555 2354.83 735.84C2496.02 825.371 2423.27 1036.66 2260.65 1033.67ZM2267.79 629.034C2213.15 632.522 2200.85 685.344 2201.02 732.186C2200.95 734.045 2200.34 735.844 2199.28 737.374C2198.23 738.903 2196.75 740.1 2195.04 740.824C2105.67 777.201 2078.77 895.967 2146.04 964.901C2309.32 1115.72 2528.58 887.661 2334.57 740.491C2343.54 687.171 2324.6 627.871 2267.79 629.034Z"/><path fill="#fff" d="M2277.26 757.766C2247.7 757.766 2217.8 751.454 2193.21 739.162C2187.4 736.338 2191.88 727.202 2197.53 730.192C2238.56 750.623 2294.7 753.447 2337.39 737.501C2338.01 737.263 2338.68 737.152 2339.34 737.174C2340 737.197 2340.66 737.352 2341.26 737.63C2341.87 737.909 2342.41 738.306 2342.86 738.797C2343.3 739.288 2343.65 739.864 2343.87 740.491C2346.53 754.111 2289.22 757.6 2277.26 757.766Z"/><path fill="#fff" d="M2281.41 711.256C2251.85 711.256 2221.95 704.944 2197.36 692.652C2191.55 689.828 2196.04 680.692 2201.85 683.682C2242.71 704.113 2298.86 706.937 2341.71 690.991C2342.32 690.756 2342.97 690.647 2343.62 690.671C2344.28 690.695 2344.92 690.852 2345.51 691.131C2346.1 691.411 2346.63 691.808 2347.06 692.298C2347.49 692.788 2347.82 693.36 2348.02 693.981C2350.68 707.436 2293.37 711.09 2281.41 711.256Z"/><path fill="#474CDC" d="M2272.28 893.642C2263.64 893.642 2255.67 890.153 2248.69 884.672C2217.63 896.798 2191.88 875.37 2193.88 844.142C2195.37 816.735 2230.92 785.507 2248.19 758.598C2252.02 753.282 2260.15 759.428 2256 764.743C2243.71 781.022 2230.92 798.131 2220.79 811.087C2210.65 824.043 2204.18 832.349 2203.84 844.64C2202.35 864.573 2216.97 884.174 2240.55 876.533C2208.66 841.983 2239.39 794.31 2276.1 826.036C2292.54 842.315 2283.08 870.719 2259.66 880.021C2275.44 890.32 2298.03 876.201 2307.33 864.905C2325.77 843.478 2286.57 797.3 2272.61 768.564C2269.79 763.913 2275.27 760.757 2278.59 759.096L2274.44 761.587C2282.41 753.614 2314.97 826.535 2316.3 827.531C2335.4 860.919 2307.33 890.32 2272.28 893.642ZM2253.68 825.87C2229.26 826.037 2235.74 860.42 2250.85 873.044C2278.92 864.739 2283.91 829.691 2253.68 825.87Z"/><path fill="#091C59" d="M2322.61 1345.12C2322.61 1345.28 2322.78 1345.45 2322.78 1345.62C2322.78 1345.78 2322.61 1344.62 2322.61 1345.12Z"/><path fill="#091C59" d="M2387.72 1802.41C2389.88 1811.71 2391.71 1821.18 2393.04 1830.65V1829.65C2391.71 1841.77 2409.32 1844.6 2409.98 1832.14C2406.83 1821.84 2409.32 1789.29 2393.7 1792.28C2391.6 1792.86 2389.8 1794.25 2388.71 1796.15C2387.63 1798.04 2387.33 1800.29 2387.89 1802.41H2387.72Z"/><path fill="#091C59" d="M1815.49 473.393C1817.07 471.181 1818.97 469.221 1821.14 467.579C1820.64 467.579 1819.97 468.244 1820.97 467.745C1822.92 466.317 1824.97 465.04 1827.11 463.925C1829.69 462.933 1832.36 462.21 1835.09 461.765C1837.08 461.433 1833.76 461.765 1834.92 461.765C1837.35 461.517 1839.8 461.517 1842.23 461.765C1842.73 461.765 1843.56 461.599 1841.9 461.765C1852.36 462.928 1864.82 472.064 1871.96 477.213C1875.75 480.086 1879.21 483.373 1882.26 487.014C1883.26 488.176 1882.26 487.18 1882.1 487.014C1884.76 490.345 1886.94 494.036 1888.57 497.977C1888.08 496.98 1888.41 497.312 1888.74 498.143C1890.26 502.107 1891.32 506.231 1891.9 510.434C1892.06 514.753 1891.56 525.052 1900.53 525.052C1902.72 525.009 1904.81 524.121 1906.36 522.572C1907.91 521.024 1908.8 518.936 1908.84 516.747C1909.67 486.017 1885.92 462.098 1859.51 449.972C1840.9 440.836 1816.65 444.823 1803.69 461.599C1802.23 463.202 1801.36 465.25 1801.2 467.413C1800.87 474.389 1810.84 478.874 1815.49 473.393Z"/><path fill="#091C59" d="M2237.4 593.82C2237.19 593.469 2237.07 593.068 2237.07 592.658C2237.4 594.983 2237.07 592.658 2237.23 591.993C2236.9 594.319 2237.4 591.827 2237.56 591.163C2235.9 594.319 2240.06 587.342 2238.23 590.166C2238.56 589.668 2241.38 586.678 2239.72 588.339C2238.06 590 2242.71 586.18 2243.21 586.346C2240.39 587.342 2246.37 585.349 2247.2 585.515C2244.54 585.847 2247.7 585.515 2248.36 585.515C2249.02 585.515 2253.01 585.847 2250.19 585.515C2252.89 585.761 2255.47 586.737 2257.66 588.339L2257.33 588.007C2259.13 589.389 2260.6 591.146 2261.65 593.156C2261.82 593.488 2262.98 596.146 2262.15 594.153C2263.23 596.883 2264.01 599.724 2264.47 602.624C2264.74 607.716 2264.69 612.821 2264.31 617.906C2264.14 628.703 2280.92 628.703 2280.92 617.906C2286.07 587.01 2263.14 555.782 2231.09 574.22C2203.68 597.143 2237.23 617.906 2237.4 593.82Z"/><path fill="#091C59" d="M1369.99 205.297C1369.83 205.131 1369.83 204.799 1369.66 204.633C1369.49 204.467 1369.99 205.464 1369.99 205.297Z"/><path fill="#091C59" d="M1343.58 564.419L1344.25 564.917C1344.58 565.083 1344.58 564.751 1343.58 564.419Z"/><path fill="#091C59" d="M1366.5 574.053H1367.17C1366 573.721 1366.01 573.887 1366.5 574.053Z"/><path fill="#091C59" d="M1330.29 489.838C1330.26 490.191 1330.15 490.532 1329.96 490.835C1330.13 490.835 1330.29 490.502 1330.29 489.838Z"/><path fill="#091C59" d="M1335.61 556.28L1336.27 556.779L1335.61 556.28Z"/><path fill="#091C59" d="M1505.37 315.758L1506.03 315.426C1506.2 315.259 1505.7 315.259 1505.37 315.758Z"/><path fill="#091C59" d="M1535.6 244.001V243.171C1535.27 244.168 1535.6 244.334 1535.6 244.001Z"/><path fill="#091C59" d="M1530.12 289.513C1530.12 289.181 1530.45 289.015 1530.45 288.683C1530.45 288.351 1529.95 289.513 1530.12 289.513Z"/><path fill="#fff" d="M1708.02 487.014L1696.39 453.626C1696.11 452.837 1695.68 452.112 1695.12 451.491C1694.56 450.871 1693.88 450.368 1693.12 450.013C1692.36 449.657 1691.54 449.456 1690.71 449.42C1689.87 449.385 1689.04 449.516 1688.25 449.806L1677.12 417.747C1676.54 416.103 1675.61 414.606 1674.4 413.359C1673.18 412.112 1671.7 411.146 1670.07 410.529C1668.44 409.912 1666.7 409.658 1664.96 409.786C1663.22 409.914 1661.53 410.42 1660.01 411.269L1659.68 411.601L1657.69 405.954C1657.14 404.286 1656.23 402.764 1655.01 401.501C1653.79 400.237 1652.31 399.265 1650.66 398.658C1649.01 398.051 1647.25 397.824 1645.51 397.994C1643.76 398.165 1642.08 398.728 1640.58 399.642C1551.71 450.636 1520.32 512.594 1520.32 512.594C1518.68 514.231 1517.13 515.949 1515.67 517.743L1514.67 518.74L1514.01 519.404C1508.52 524.387 1471.98 556.612 1426.14 596.477C1438.59 636.675 1455.7 678.035 1490.58 701.789C1510.68 676.042 1528.95 652.289 1544.73 633.187L1642.74 617.573C1645.61 617.129 1648.23 615.654 1650.09 613.422C1651.96 611.19 1652.94 608.355 1652.87 605.447L1652.04 580.531C1651.98 578.801 1651.54 577.104 1650.76 575.56C1649.97 574.015 1648.86 572.659 1647.51 571.584C1646.15 570.51 1644.57 569.744 1642.89 569.339C1641.2 568.933 1639.45 568.898 1637.75 569.236L1580.95 581.029H1580.61L1597.06 563.09C1606.37 552.923 1617.46 544.536 1629.78 538.34L1702.2 501.631C1704.8 500.337 1706.83 498.13 1707.9 495.433C1708.98 492.736 1709.02 489.738 1708.02 487.014Z"/><path fill="#091C59" d="M1716.32 485.685C1712.5 474.389 1708.52 463.094 1704.53 451.965C1703.88 449.49 1702.58 447.233 1700.77 445.423C1698.96 443.614 1696.7 442.318 1694.23 441.666C1687.75 426.883 1686.42 400.306 1664.83 401.635C1652.04 378.048 1630.61 395.157 1615.16 405.455C1575.13 432.365 1538.26 465.586 1513.67 507.444C1484.27 536.845 1451.22 562.592 1420.32 590.497C1419.25 591.528 1418.49 592.831 1418.11 594.266C1417.73 595.701 1417.75 597.212 1418.16 598.637C1428.29 631.193 1441.08 664.082 1464.17 689.663C1470.79 696.954 1478.27 703.423 1486.43 708.931C1489.09 710.924 1494.4 710.426 1496.4 707.768C1513.84 685.344 1531.11 662.754 1549.05 640.828L1646.23 625.38C1665.99 619.732 1660.51 598.138 1660.51 582.524C1660.69 579.303 1660.1 576.086 1658.81 573.131C1657.51 570.177 1655.54 567.568 1653.05 565.516C1650.56 563.463 1647.62 562.024 1644.48 561.314C1641.33 560.604 1638.06 560.644 1634.93 561.429L1603.7 567.907C1613.36 557.708 1624.86 549.424 1637.59 543.489L1696.22 513.756C1708.52 508.607 1719.98 500.8 1716.32 485.685ZM1646.72 406.12H1646.56C1646.58 406.134 1646.61 406.142 1646.64 406.142C1646.67 406.142 1646.7 406.134 1646.72 406.12ZM1699.05 493.658C1695.72 495.651 1692.24 497.312 1688.75 499.139L1630.28 528.54C1618.67 534.194 1607.88 541.402 1598.22 549.968C1589.75 557.608 1582.44 566.578 1574.8 574.883C1571.81 578.206 1571.31 583.521 1574.8 586.677C1581.11 592.491 1592.41 586.179 1600.21 585.514C1612.01 583.023 1638.42 576.711 1642.57 578.206C1643.4 578.538 1643.73 579.701 1643.73 580.697C1643.57 589.002 1644.73 597.972 1644.4 606.277C1644.4 606.61 1644.56 608.935 1641.24 609.433L1543.74 625.047C1538.59 625.712 1535.43 631.526 1532.28 635.346C1517.66 653.452 1503.37 671.391 1489.09 689.829C1460.85 666.906 1446.57 632.19 1435.77 598.47C1465.34 571.894 1496.73 546.978 1525.13 519.072C1544.9 486.681 1570.98 458.941 1601.04 435.853C1614.99 425.141 1629.64 415.375 1644.9 406.618H1645.73C1645.56 406.452 1646.39 406.452 1646.56 406.452H1646.72L1647.55 406.784C1647.06 406.286 1647.72 406.618 1648.05 406.784H1648.22L1649.05 407.283L1649.38 407.615C1649.22 407.615 1649.22 407.449 1649.05 407.283C1648.88 407.116 1649.22 407.615 1649.38 407.781C1628.62 421.9 1608.69 437.182 1587.26 450.304L1582.94 452.629C1581.11 453.795 1579.8 455.614 1579.28 457.715C1578.75 459.816 1579.05 462.038 1580.12 463.925C1581.28 465.79 1583.12 467.138 1585.25 467.694C1587.38 468.249 1589.64 467.971 1591.58 466.915C1601.21 461.931 1610.01 455.453 1618.98 449.307C1627.95 443.161 1640.41 434.358 1651.04 426.883L1661.34 419.574C1662.34 419.408 1669.81 412.764 1678.12 445.819C1678.13 445.947 1678.19 446.066 1678.28 446.151L1650.88 462.43L1611.84 486.183C1607.95 488.425 1604.18 490.864 1600.55 493.492C1597.22 496.315 1597.89 502.129 1600.55 505.285C1605.53 510.933 1616.99 502.461 1618.98 501.298L1635.76 491L1677.12 466.25L1689.41 458.775C1693.07 468.908 1696.56 479.04 1700.04 489.173C1700.38 489.671 1700.87 492.827 1699.05 493.658Z"/><path fill="#091C59" d="M1645.06 406.618H1645.23C1645.2 406.633 1645.17 406.64 1645.15 406.64C1645.12 406.64 1645.09 406.633 1645.06 406.618Z"/><path fill="#fff" d="M464.548 1310.07C464.548 1310.07 463.717 1483.98 520.193 1618.03C576.669 1752.08 658.892 2001.4 667.197 2018.01C678.659 2040.44 880.145 2635.26 880.145 2635.26L1074.99 2571.48L869.348 1956.22C869.514 1921.34 695.601 1504.75 695.601 1504.75L724.172 1505.58C724.172 1505.58 857.721 1930.14 862.704 1941.94C867.687 1953.73 409.733 2358.2 409.733 2358.2L547.933 2514.34L1031.47 2074.16C1050.34 2057 1064 2034.87 1070.87 2010.31C1077.75 1985.75 1077.56 1959.75 1070.34 1935.29C1023.16 1776.49 927.818 1451.43 927.818 1451.43L932.967 1277.84L930.807 1257.08L920.675 1226.68L816.693 1197.45L532.485 1275.69C532.485 1275.69 461.724 1300.43 464.548 1310.07Z"/><path fill="#091C59" d="M472.355 1311.9H472.189C472.189 1312.06 472.022 1312.06 472.022 1312.23C472.022 1312.39 472.355 1311.9 472.355 1311.9Z"/><path fill="#091C59" d="M1083.46 1988.11C1087.28 1951.4 1073.33 1916.36 1063.03 1881.64C1020.34 1737.63 978.313 1593.28 935.79 1449.27C938.116 1403.09 939.278 1335.48 941.106 1282.16C941.106 1261.23 935.624 1240.47 927.153 1221.7C925.159 1219.04 922.336 1218.54 919.346 1217.71L889.114 1209.24C866.524 1202.76 843.933 1195.95 821.177 1190.14C812.872 1187.98 803.404 1192.47 795.597 1194.63L532.983 1267.05C518.366 1271.03 503.915 1277.51 489.962 1283.49C476.009 1289.47 453.917 1299.77 456.242 1310.4C456.907 1430.16 479.497 1549.93 527.834 1659.72C582.815 1805.73 633.975 1953.23 685.801 2100.24L405.248 2355.04C396.278 2364.84 413.885 2374.48 418.702 2382.28L490.958 2463.01C507.901 2481.95 524.678 2501.21 541.787 2519.98C550.424 2528.46 558.563 2514.67 565.208 2509.85L765.199 2327.8C801.078 2430.9 836.736 2534.1 872.172 2637.42C873.666 2641.57 877.985 2644.73 882.47 2643.24L1050.57 2589.92C1058.87 2585.6 1083.62 2584.93 1080.3 2572.14C1035.56 2435.82 990.827 2299.51 946.089 2163.19C997.582 2110.37 1076.15 2069.01 1083.46 1988.11ZM472.022 1312.23C471.856 1312.39 471.524 1312.39 472.188 1311.9H472.521C472.188 1314.06 472.022 1312.89 472.022 1312.23ZM697.262 2367.17C647.596 2412.18 598.263 2457.53 548.431 2502.54C506.572 2455.54 464.381 2408.86 422.689 2361.69L691.78 2117.34C714.371 2181.79 736.85 2246.3 759.219 2310.86L697.262 2367.17ZM1007.88 2084.46L940.441 2145.91C870.843 1931.8 802.075 1717.36 732.144 1503.42C731.624 1501.69 730.576 1500.16 729.146 1499.06C727.715 1497.96 725.976 1497.33 724.171 1497.27L695.601 1496.44C690.618 1496.27 685.468 1501.92 687.628 1506.9C740.449 1635.14 798.421 1760.55 841.608 1893.77C914.805 2118.89 988.224 2343.97 1061.86 2568.99L885.46 2624.8C806.947 2397.01 727.715 2169.45 647.762 1942.1C608.561 1833.47 571.52 1723.84 528.498 1616.7C488.799 1521.19 474.348 1414.38 472.853 1311.4L473.683 1310.73C499.264 1293.13 530.99 1285.49 560.391 1276.68C645.935 1253.26 731.314 1229.34 817.024 1206.25C849.415 1215.06 881.806 1224.52 914.196 1233.49C917.186 1241.63 919.346 1250.1 922.502 1258.08C923.771 1267.05 924.382 1276.1 924.329 1285.15L920.342 1425.84C920.176 1437.64 917.518 1449.93 922.003 1461.23C961.094 1593.89 1000.13 1726.55 1039.11 1859.22C1066.85 1951.24 1095.58 2013.03 1007.88 2084.46ZM718.025 1513.71L754.402 1626C739.121 1588.46 723.673 1550.92 708.059 1513.38L718.025 1513.71Z"/><path fill="#091C59" d="M795.431 522.062C873.002 600.464 854.066 711.921 821.011 773.546C804.733 803.777 778.488 828.527 744.104 855.935C660.221 922.543 560.889 965.066 441.293 975.531C272.529 990.148 169.045 872.047 222.697 750.623C258.576 669.232 335.317 671.059 380.332 603.287C472.023 465.42 618.362 342.335 795.431 522.062Z"/><path fill="#fff" d="M715.368 742.982C715.368 742.982 724.337 823.544 794.6 874.04C816.692 889.986 760.548 937.493 699.588 951.944C638.627 966.395 576.503 947.459 585.639 922.875C615.372 842.812 606.402 767.234 606.402 767.234L715.368 742.982Z"/><path fill="#091C59" d="M657.729 966.727C617.864 965.232 568.53 957.259 576.337 919.387C604.741 842.812 596.602 769.227 596.436 768.396C596.175 765.951 596.829 763.495 598.27 761.502C599.711 759.509 601.839 758.119 604.243 757.6L713.208 733.348C714.557 733.035 715.957 733.011 717.316 733.278C718.675 733.544 719.962 734.096 721.092 734.897C722.222 735.697 723.169 736.728 723.872 737.921C724.574 739.115 725.016 740.443 725.168 741.82C725.334 742.65 734.802 818.893 800.414 865.901C803.899 868.335 806.582 871.752 808.12 875.715C809.658 879.679 809.982 884.011 809.051 888.159C802.241 925.201 712.046 970.548 657.729 966.727ZM617.033 775.207C618.528 797.963 619.525 860.253 595.107 926.197C601.917 945.632 650.088 951.944 697.262 942.309C744.436 932.675 786.461 899.122 789.451 884.172C734.636 841.815 710.883 780.356 707.229 754.942L617.033 775.207Z"/><path fill="#fff" d="M482.653 669.731C479.228 655.157 477.996 640.153 478.999 625.215C469.538 624.184 459.969 625.512 451.146 629.081C442.323 632.649 434.521 638.347 428.436 645.665C422.352 652.983 418.174 661.693 416.276 671.019C414.378 680.345 414.819 689.996 417.559 699.11C420.299 708.224 425.253 716.518 431.98 723.251C438.706 729.984 446.995 734.947 456.106 737.696C465.217 740.445 474.868 740.896 484.196 739.007C493.524 737.118 502.239 732.949 509.563 726.872C496.608 709.97 487.432 690.484 482.653 669.731Z"/><path fill="#091C59" d="M472.687 750.125C393.288 748.962 380.166 635.677 457.405 616.741C505.908 606.111 481.656 637.671 492.287 667.57C496.853 686.873 505.458 704.989 517.535 720.724C519.048 722.795 519.733 725.357 519.456 727.906C519.18 730.456 517.962 732.811 516.04 734.511C503.842 744.595 488.513 750.115 472.687 750.125ZM468.7 635.013C393.122 646.474 426.343 756.603 495.609 724.378C477.91 697.949 468.537 666.821 468.7 635.013Z"/><path fill="#091C59" d="M640.952 785.007L744.27 821.385C744.27 821.385 714.703 757.932 717.029 756.437C719.354 754.942 656.898 782.184 648.925 783.679L640.952 785.007Z"/><path fill="#fff" d="M664.919 779.558C744.658 759.233 792.823 678.115 772.497 598.376C752.172 518.637 671.054 470.472 591.315 490.797C511.576 511.123 463.411 592.241 483.736 671.98C504.062 751.719 585.18 799.884 664.919 779.558Z"/><path fill="#091C59" d="M627.498 794.975C441.293 793.978 409.899 524.388 591.619 481.034C822.839 439.342 862.039 783.347 627.498 794.975ZM627.996 496.814C423.354 505.286 458.236 809.592 659.39 771.388C818.52 732.353 791.611 498.974 627.996 496.814Z"/><path fill="#091C59" d="M469.199 705.941C460.893 706.107 466.707 692.818 463.883 691.157C461.059 689.496 459.731 689.994 454.083 691.822C439.964 695.31 438.967 676.706 443.95 667.072C448.934 657.438 468.7 642.654 472.687 655.943C472.687 657.264 472.162 658.532 471.227 659.466C470.293 660.401 469.025 660.926 467.704 660.926C454.913 660.926 449.93 674.879 451.425 682.187C467.87 677.703 477.504 682.52 474.016 701.954C473.788 703.068 473.186 704.072 472.31 704.797C471.434 705.522 470.336 705.926 469.199 705.941Z"/><path fill="#091C59" d="M654.905 611.426C657.895 635.678 644.274 637.339 641.451 613.087C638.627 588.836 652.081 587.175 654.905 611.426Z"/><path fill="#091C59" d="M723.673 607.608C726.829 631.859 713.042 633.52 710.218 609.269C707.394 585.017 720.849 583.19 723.673 607.608Z"/><path fill="#091C59" d="M675.668 659.598C691.282 630.861 726.497 657.272 705.734 663.418C704.632 663.418 703.576 663.856 702.797 664.635C702.018 665.413 701.581 666.47 701.581 667.571C704.239 677.205 718.69 668.568 719.52 661.591C723.839 640.828 695.933 632.689 681.15 642.157C675.835 645.479 663.709 654.615 669.855 661.093C670.837 661.606 671.975 661.737 673.049 661.461C674.122 661.185 675.055 660.521 675.668 659.598Z"/><path fill="#091C59" d="M643.278 685.842C647.43 704.114 671.682 719.562 689.621 711.589C694.771 708.765 689.289 701.456 684.638 704.778C672.679 708.433 654.241 697.303 651.251 683.683C650.088 678.533 641.949 680.693 643.278 685.842Z"/><path fill="#091C59" d="M687.96 666.076C688.126 663.086 685.302 662.09 682.977 661.093C682.476 660.741 681.905 660.5 681.304 660.386C680.703 660.271 680.084 660.286 679.488 660.429C674.173 662.588 676.499 668.236 681.149 669.398C681.764 669.911 682.515 670.235 683.309 670.332C684.104 670.428 684.91 670.293 685.63 669.942C686.35 669.591 686.953 669.039 687.366 668.353C687.779 667.667 687.986 666.877 687.96 666.076Z"/><path fill="#091C59" d="M768.854 536.348C733.806 507.777 704.073 469.075 659.39 456.285C593.114 441.833 522.187 483.194 481.325 533.856C467.87 550.467 427.672 612.424 473.019 610.265C512.054 622.225 568.696 580.366 586.47 546.314C593.28 531.863 603.911 526.381 617.532 536.846C632.259 545.001 647.862 551.464 664.041 556.114C685.137 560.931 755.566 580.532 763.705 553.623C765.407 552.555 766.654 550.896 767.206 548.964C767.758 547.032 767.576 544.964 766.695 543.158C769.186 541.829 771.346 538.673 768.854 536.348ZM766.529 542.66V542.992C766.491 542.884 766.491 542.767 766.529 542.66Z"/><path fill="#474CDC" d="M1095.42 1737.96C1081.8 1709.22 937.618 1495.61 939.777 1451.92C941.106 1426.68 934.628 1384.15 934.794 1351.6C894.596 1355.42 865.86 1305.25 825.828 1304.09C695.767 1299.27 590.622 1329.34 460.561 1343.62C485.975 1465.38 399.268 1790.45 399.268 1790.45C407.241 1769.85 454.249 1764.54 483.318 1781.48C502.42 1792.77 517.203 1812.87 539.295 1815.7C575.174 1820.51 599.094 1781.15 629.325 1761.05C640.501 1753.72 653.114 1748.86 666.32 1746.79C679.526 1744.73 693.02 1745.51 705.9 1749.09C749.42 1761.21 784.966 1804.73 829.649 1798.09C863.534 1793.11 893.932 1759.05 926.322 1770.51C940.774 1775.66 951.238 1789.12 965.856 1793.94C985.456 1800.25 1005.89 1789.12 1024.49 1779.82C1043.09 1770.51 1101.56 1759.39 1118.01 1771.84L1095.42 1737.96Z"/><path fill="#091C59" d="M1125.15 1767.69C1068.51 1674.84 1001.24 1578.16 955.391 1478.67C949.652 1466.44 947.191 1452.93 948.248 1439.47C947.584 1410.07 943.099 1381 943.099 1351.6C942.767 1337.48 920.841 1348.11 903.566 1334.99C881.806 1322.69 863.368 1303.59 838.618 1297.61C711.547 1286.48 586.303 1322.36 460.561 1335.32C455.08 1335.98 451.425 1340.13 452.588 1345.78C462.056 1400.1 454.581 1456.08 448.103 1510.23C437.14 1589.96 420.53 1668.86 401.76 1747.09C401.261 1756.89 387.807 1784.63 392.624 1794.93C393.59 1796.23 394.77 1797.35 396.112 1798.26C417.706 1816.53 444.449 1813.37 469.199 1824.5C495.61 1840.61 522.353 1857.89 554.411 1858.72C566.205 1858.72 623.345 1862.54 609.392 1840.78C601.069 1831.34 594.842 1820.24 591.12 1808.22C590.826 1807.14 590.317 1806.12 589.626 1805.23C625.338 1777.82 650.254 1740.45 707.229 1758.06C791.943 1795.6 797.922 1833.3 893.433 1780.65C904.729 1776.33 915.692 1774.34 926.655 1779.65C974.825 1817.19 992.266 1803.24 1024.16 1789.45C1024.07 1793.23 1024.63 1796.99 1025.82 1800.58C1029.97 1814.37 1036.95 1814.53 1048.74 1812.37C1073.99 1807.56 1105.38 1797.59 1123.32 1777.99C1126.15 1775.33 1127.48 1771.18 1125.15 1767.69ZM949.245 1774.5C937.451 1765.86 924.827 1759.05 909.712 1760.05C844.1 1773.01 833.635 1816.53 761.877 1767.86C724.67 1742.44 676.831 1725.17 634.308 1748.59C610.223 1760.72 593.28 1783.8 571.354 1798.59C514.712 1836.96 499.098 1738.29 413.553 1768.19C443.784 1631.65 482.653 1491.46 470.195 1350.77C593.28 1338.47 718.025 1299.77 841.774 1315.88C870.843 1327.84 893.766 1357.58 926.655 1359.9C927.153 1381.16 929.478 1402.42 930.807 1423.52C930.973 1447.27 931.306 1470.69 943.099 1491.96C984.127 1580.16 1050.74 1677.66 1098.91 1758.22C1085.2 1757.67 1071.48 1758.79 1058.04 1761.55C1021 1763.54 982.965 1807.56 949.245 1774.5Z"/><path fill="#F34886" d="M1417 566.911C1412.51 565.582 1219.5 761.089 1188.27 767.069C1069.17 789.327 793.271 849.125 777.989 859.756C768.023 950.45 657.23 996.295 587.3 889.987C559.062 895.303 469.032 914.737 429.499 928.192C405.746 936.331 273.526 978.854 188.645 1010.41C168.565 1017.92 151.9 1032.48 141.754 1051.36C131.608 1070.25 128.674 1092.18 133.498 1113.07C140.475 1142.97 163.563 1164.56 191.635 1176.85C256.583 1205.09 346.28 1244.62 451.591 1252.93C452.09 1252.93 435.977 1276.35 430.496 1345.12C560.723 1330.83 923 1369.04 963.032 1365.22C963.364 1262.73 944.594 1132.67 923.997 1040.98C930.143 1039.15 934.794 1037.32 941.106 1037.82C950.241 1038.82 1125.48 985.664 1228.47 954.27C1280.24 938.409 1328.11 911.871 1368.99 876.367C1419.82 832.182 1525.63 712.088 1525.63 712.088C1474.14 679.033 1448.06 665.412 1417 566.911Z"/><path fill="#091C59" d="M1533.11 715.575V715.243L1533.44 714.413C1533.83 713.118 1533.88 711.748 1533.61 710.426C1532.94 694.646 1518.99 658.767 1503.87 682.852L1501.38 686.175C1489.8 678.406 1479.25 669.196 1469.99 658.767C1454.04 640.163 1443.58 617.573 1434.94 594.65C1437.43 594.65 1439.76 593.487 1442.08 590.498C1444.41 587.508 1449.72 581.86 1447.9 576.379C1444.24 565.582 1429.29 557.11 1417.5 558.605H1417C1411.68 557.941 1405.87 564.751 1402.38 567.907C1394.74 574.884 1387.1 582.026 1379.63 589.335C1316.51 646.143 1258.87 711.921 1187.77 758.597C1054.72 787.333 909.047 810.92 775.498 851.782C768.688 855.27 769.352 863.576 767.857 870.386C762.21 896.631 745.599 920.55 721.68 933.34C674.007 959.585 620.189 928.025 594.442 885.834C588.961 874.705 526.671 896.465 512.22 897.628C438.137 913.408 367.043 940.483 295.12 964.07C249.773 981.843 199.775 991.145 158.913 1017.89C122.037 1046.62 111.406 1103.6 137.153 1142.8C190.805 1208.08 349.104 1247.95 439.466 1259.74C428.337 1286.65 424.848 1316.21 422.191 1345.12C422.233 1347.31 423.122 1349.39 424.67 1350.94C426.219 1352.49 428.307 1353.38 430.496 1353.42C463.385 1349.77 496.606 1349.93 529.661 1350.27C663.709 1351.1 797.258 1367.38 930.973 1372.52C929.82 1373.79 929.018 1375.34 928.648 1377.01C926.322 1385.31 934.794 1393.29 942.933 1390.13C951.072 1386.98 966.188 1379.33 970.34 1369.2C971.015 1367.98 971.359 1366.61 971.337 1365.22V1364.55C971.337 1364.22 971.503 1363.89 971.503 1363.39H971.337C971.005 1257.25 955.723 1151.27 933.797 1047.46C1043.93 1022.54 1152.39 986.826 1260.03 952.11C1374.97 908.424 1450.22 805.273 1531.45 718.067C1532 717.443 1532.5 716.777 1532.94 716.074C1532.94 715.741 1532.94 715.575 1533.11 715.575ZM1275.31 927.36C1168.34 968.389 1047.75 1000.11 941.77 1029.52C938.185 1030.93 934.452 1031.93 930.641 1032.51C926.821 1011.74 919.014 982.175 905.891 988.82C903.994 989.961 902.619 991.799 902.06 993.941C901.501 996.083 901.803 998.359 902.901 1000.28C904.119 1002.61 905.282 1005.1 906.39 1007.76C910.81 1018.82 913.931 1030.36 915.692 1042.14C915.744 1042.72 915.913 1043.29 916.19 1043.8C938.614 1146.45 953.231 1251.43 954.726 1356.74C783.305 1352.43 611.551 1325.02 439.964 1336.15C451.924 1246.28 474.182 1246.45 443.452 1244.29C419.699 1242.46 284.489 1229.51 164.062 1149.11C126.356 1124.03 132.336 1062.74 166.221 1033.5C203.595 1006.76 251.434 999.118 293.625 982.175C388.803 949.619 484.148 917.228 583.147 899.122C641.118 989.484 766.694 975.697 785.464 865.901C913.698 826.368 1064.02 804.442 1199.23 771.387C1278.3 717.901 1341.09 644.15 1412.35 581.196C1429.13 637.007 1461.35 684.846 1512.18 714.246C1440.25 792.15 1373.65 881.681 1275.31 927.36Z"/><path fill="#091C59" d="M600.422 1105.59C599.509 1104.45 598.209 1103.68 596.768 1103.43H595.937C555.408 1096.12 514.878 1090.31 474.182 1084.33C463.883 1081.34 459.232 1097.95 469.697 1100.44C506.572 1105.76 543.448 1111.07 580.157 1117.39C556.238 1157.25 555.74 1205.75 556.238 1250.93C531.204 1252.79 506.044 1252.07 481.158 1248.78C470.693 1249.61 445.445 1237.81 441.127 1250.44C440.296 1254.26 442.289 1259.9 446.94 1260.57C485.145 1266.71 524.346 1271.37 563.048 1266.71C565.061 1266.28 566.94 1265.37 568.53 1264.06C574.178 1262.23 580.157 1257.41 584.31 1254.92C588.463 1252.43 598.097 1247.78 593.612 1239.97C589.127 1232.16 579.659 1237.98 572.683 1242.63C572.433 1239.7 572.433 1236.76 572.683 1233.83C572.516 1219.37 573.679 1195.46 575.174 1185.66C577.5 1169.87 580.988 1153.93 587.3 1139.15C596.602 1144.79 609.724 1143.96 609.724 1128.18C608.728 1119.88 606.9 1111.24 600.422 1105.59ZM586.802 1140.14C586.812 1140.01 586.872 1139.9 586.968 1139.81C586.802 1140.31 586.303 1141.14 586.802 1140.14Z"/><path fill="#fff" d="M813.869 1214.56L733.971 1200.44C720.385 1197.98 707.339 1193.15 695.435 1186.15L674.007 1173.36L732.477 1168.21C734.217 1168.08 735.907 1167.57 737.424 1166.7C738.941 1165.84 740.248 1164.65 741.249 1163.22C742.25 1161.79 742.921 1160.15 743.214 1158.43C743.507 1156.71 743.413 1154.95 742.941 1153.26L736.629 1129.35C735.887 1126.53 734.144 1124.09 731.729 1122.47C729.314 1120.85 726.391 1120.16 723.507 1120.54L607.897 1137.98L585.805 1133.66C568.198 1165.22 560.059 1202.43 566.371 1237.98C595.273 1242.63 615.04 1245.62 619.691 1245.79C619.691 1245.79 684.472 1306.75 784.302 1330C786.001 1330.4 787.767 1330.41 789.472 1330.04C791.177 1329.67 792.778 1328.92 794.161 1327.86C795.543 1326.79 796.672 1325.43 797.466 1323.88C798.26 1322.33 798.7 1320.62 798.753 1318.87L799.085 1312.89H799.583C801.283 1313.29 803.049 1313.3 804.754 1312.93C806.459 1312.56 808.06 1311.81 809.442 1310.75C810.825 1309.68 811.954 1308.32 812.748 1306.77C813.542 1305.22 813.981 1303.51 814.035 1301.76L815.363 1267.88C817.055 1267.97 818.715 1267.39 819.988 1266.28C821.261 1265.16 822.046 1263.59 822.174 1261.9L823.669 1226.68C823.722 1223.83 822.768 1221.05 820.976 1218.84C819.183 1216.62 816.667 1215.1 813.869 1214.56Z"/><path fill="#091C59" d="M817.025 1206.75C791.278 1201.93 765.366 1197.61 739.62 1192.96C725.815 1190.92 712.518 1186.3 700.419 1179.34C721.182 1177.02 759.22 1181 750.416 1148.61C743.938 1120.87 741.115 1106.75 708.392 1114.56L608.23 1129.68C599.26 1129.35 585.141 1120.71 578.829 1129.51C564.378 1155.42 557.9 1184.99 558.066 1214.72C559.228 1223.03 554.577 1243.29 564.212 1245.95C581.653 1248.61 598.928 1251.77 616.369 1253.92C656.797 1288.17 703.594 1314.08 754.071 1330.17C771.844 1335.65 802.075 1348.44 807.059 1320.87C827.822 1315.88 821.676 1290.3 823.503 1274.19C831.974 1269.37 830.479 1258.74 830.978 1250.44C831.31 1235.15 836.958 1211.9 817.025 1206.75ZM814.367 1223.53C814.367 1223.69 814.201 1223.53 814.035 1223.36L814.367 1223.53ZM813.869 1223.2H813.537C813.703 1223.03 813.869 1223.03 813.869 1223.2ZM813.537 1223.03C813.703 1223.03 813.703 1223.03 813.703 1223.2C813.703 1223.36 813.371 1223.03 813.204 1222.86L813.537 1223.03ZM815.364 1226.02C815.032 1237.15 814.533 1248.11 814.035 1259.07L780.482 1250.77C762.044 1245.79 743.274 1241.63 725.002 1236.15C714.87 1233.16 710.385 1249.11 720.683 1252.1C745.433 1259.24 770.681 1265.22 795.597 1271.7C799.378 1272.41 803.099 1273.41 806.726 1274.69C806.394 1284.32 806.56 1294.29 805.231 1303.59C804.567 1304.42 801.743 1305.42 798.421 1304.75C776.827 1297.94 755.566 1290.14 733.806 1283.66C725.833 1282.16 711.88 1274.36 707.893 1285.49C707.063 1289.64 709.222 1294.95 713.707 1295.78C737.128 1300.77 759.552 1309.57 782.309 1316.88L790.282 1319.7C790.103 1320.15 789.818 1320.55 789.451 1320.87C788.953 1321.53 786.295 1321.86 786.129 1321.86C749.088 1318.71 716.365 1299.77 684.638 1281.5C669.156 1272.71 654.284 1262.89 640.122 1252.1C632.813 1247.61 627.664 1238.64 618.86 1237.48C603.745 1235.82 588.795 1233.16 573.68 1230.84C569.859 1200.77 576.503 1169.88 590.29 1143.13C605.406 1147.95 620.355 1144.79 635.637 1142.3L725.667 1128.51C721.68 1129.18 725.667 1128.51 726.331 1129.01C729.985 1130.18 732.809 1148.78 734.802 1154.93C736.796 1161.07 735.135 1159.24 731.813 1160.08L675.503 1165.06C671.516 1165.06 667.031 1166.89 666.201 1171.2C663.709 1182.5 683.974 1187.15 691.117 1193.3C704.217 1200.9 718.556 1206.13 733.474 1208.74C760.217 1214.23 788.289 1216.88 814.533 1223.86C814.201 1223.53 814.533 1223.86 814.699 1224.19C814.866 1224.52 815.032 1224.36 814.866 1224.19C814.699 1224.03 815.198 1224.69 815.198 1225.19C815.198 1225.69 815.364 1225.35 815.364 1225.69V1225.35C815.364 1225.35 815.53 1226.52 815.364 1226.02Z"/><path fill="#BEE1FF" d="M876.491 2510.68C886.709 2510.15 896.413 2506.03 903.898 2499.06L904.396 2498.56C913.917 2489.72 925.266 2483.08 937.639 2479.12C950.011 2475.16 963.104 2473.97 975.988 2475.64C984.326 2476.82 992.827 2475.49 1000.41 2471.81C1012.7 2466 1022.83 2460.52 1034.62 2467.33C1039.11 2469.82 1041.6 2481.12 1042.76 2485.1L1069.17 2565.83L881.972 2631.28L851.575 2549.88C844.1 2529.95 855.063 2511.68 876.491 2510.68Z"/><path fill="#091C59" d="M857.721 2534.44V2535.27C857.809 2535 857.809 2534.71 857.721 2534.44Z"/><path fill="#091C59" d="M1077.15 2563.67C1069.51 2540.42 1062.03 2517 1054.39 2493.74C1049.41 2482.45 1049.57 2466.83 1038.11 2459.69C1019.84 2448.39 1002.56 2464.84 984.958 2467.66C952.567 2463.51 918.847 2471.48 895.426 2495.24C889.969 2499.45 883.374 2501.94 876.49 2502.38C847.422 2502.21 832.804 2534.44 845.927 2558.52L867.355 2615.99C871.673 2623.8 871.839 2641.57 884.131 2639.25L1048.41 2581.94C1057.38 2576.63 1078.64 2577.62 1077.15 2563.67ZM1048.24 2564.34C994.426 2583.11 940.773 2602.21 886.789 2620.65C877.487 2594.23 866.192 2568.32 857.72 2541.41C857.886 2539.42 857.222 2537.26 857.72 2535.27C858.219 2533.27 857.72 2534.6 857.72 2534.27C858.063 2532.86 858.507 2531.47 859.049 2530.12C858.717 2530.62 859.215 2529.29 859.215 2529.12C860.327 2526.82 861.912 2524.78 863.866 2523.14H863.534C866.782 2520.66 870.615 2519.06 874.663 2518.49C876.158 2518.32 874.165 2518.66 874.165 2518.66C907.054 2518.49 920.01 2485.1 954.56 2483.28H953.73C974.327 2482.11 994.426 2486.6 1013.2 2474.31C1018.34 2472.15 1024.66 2470.32 1029.97 2473.64L1031.63 2476.3C1040.44 2504.21 1049.74 2532.11 1058.54 2560.02L1048.24 2564.34Z"/><path fill="#091C59" d="M864.531 2522.98L863.866 2523.47L864.531 2522.98Z"/><path fill="#091C59" d="M859.216 2529.62C859.05 2529.79 859.05 2529.95 859.05 2530.28C859.05 2530 859.106 2529.72 859.216 2529.45V2529.62Z"/><path fill="#BEE1FF" d="M519.196 2311.85C523.505 2321.14 531.07 2328.53 540.458 2332.62L540.956 2332.95C552.821 2338.31 563.352 2346.22 571.796 2356.13C580.239 2366.04 586.385 2377.69 589.791 2390.26C591.915 2398.37 596.429 2405.67 602.748 2411.19C612.88 2420.32 620.687 2430.95 618.86 2444.57C618.362 2449.56 613.212 2455.2 609.89 2457.86L544.777 2512.51L411.56 2361.52L474.846 2302.22C490.46 2287.77 510.06 2292.59 519.196 2311.85Z"/><path fill="#091C59" d="M609.392 2432.95L609.06 2432.28C609.06 2432.61 609.392 2433.11 609.392 2432.95Z"/><path fill="#091C59" d="M504.413 2305.88L503.915 2305.38L504.413 2305.88Z"/><path fill="#091C59" d="M625.172 2427.8C620.521 2413.01 605.073 2406.04 599.26 2392.41C591.619 2359.03 566.869 2334.78 536.638 2320.82C525.342 2311.85 523.017 2294.91 508.732 2289.1C492.453 2280.29 474.68 2289.26 463.385 2301.72L418.868 2343.25C413.221 2350.06 397.441 2357.2 405.58 2367.33L522.519 2499.89C530.658 2506.36 538.299 2527.13 550.757 2518.49L608.229 2470.15C622.182 2460.85 632.979 2444.74 625.172 2427.8ZM608.561 2447.4C588.629 2466.33 566.537 2482.94 545.607 2500.88C504.745 2454.54 463.717 2408.53 423.187 2362.02L471.358 2316.84C479.829 2308.53 491.789 2296.07 503.915 2305.38C503.915 2305.54 505.244 2306.37 504.413 2305.87C532.983 2351.72 538.465 2330.46 567.533 2364.01C584.642 2386.77 579.825 2405.2 604.907 2425.3C606.485 2427.51 607.874 2429.84 609.06 2432.28C609.137 2432.52 609.249 2432.74 609.392 2432.94C611.053 2437.6 612.05 2443.41 608.561 2447.4Z"/><path fill="#F34886" d="M873.833 2622.97C867.582 2683.68 877.377 2744.97 902.237 2800.7C906.39 2809.84 911.041 2818.98 918.682 2825.29C936.953 2840.24 964.361 2834.42 987.284 2827.61L1095.42 2796.05C1135.95 2784.09 1177.31 2771.97 1212.52 2748.38C1232.79 2730.77 1248.9 2713.83 1254.71 2687.75C1281.79 2569.48 1125.82 2658.85 1067.51 2558.85L873.833 2622.97Z"/><path fill="#091C59" d="M1266.01 2658.68C1259.37 2589.75 1163.69 2617.49 1118.34 2593.07H1118.67C1103.05 2586.59 1089.54 2575.89 1079.64 2562.18C1075.98 2557.19 1073.16 2548.39 1065.35 2550.71L943.93 2591.08C919.014 2600.38 891.939 2606.19 868.019 2617.32C858.385 2655.69 865.195 2699.05 872.67 2737.92C900.078 2846.88 920.675 2861 1028.15 2824.29C1116.68 2794.06 1266.67 2780.11 1266.01 2658.68ZM1231.96 2716.99C1231.96 2716.82 1232.12 2716.82 1231.96 2716.99V2716.99ZM1231.46 2717.49L1231.96 2716.99L1231.46 2717.49ZM1249.23 2670.48C1248.36 2680.19 1246.18 2689.75 1242.75 2698.88C1235.11 2716.16 1221.66 2729.61 1207.54 2741.74H1207.71C1178.97 2760.84 1146.25 2772.3 1113.36 2782.27C1066.18 2795.89 1019.18 2810.34 972.002 2823.29C945.093 2830.94 919.346 2826.62 909.712 2797.38C896.551 2767.72 887.659 2736.35 883.301 2704.2V2704.7C883.301 2704.36 883.135 2703.7 883.301 2704.03C880.008 2679.25 879.451 2654.18 881.64 2629.28L1064.02 2568.99C1115.85 2654.53 1259.53 2592.74 1249.23 2670.48Z"/><path fill="#091C59" d="M890.776 2770.64C972.666 2780.11 1054.22 2756.02 1128.14 2722.63C1171.49 2702.54 1218.5 2682.93 1248.4 2644.23C1252.89 2639.08 1258.37 2630.45 1250.4 2625.79C1242.42 2621.14 1236.28 2633.1 1234.62 2635.1C1202.72 2674.96 1147.74 2695.06 1103.72 2715.33C1063.19 2732.6 1015.69 2747.38 974.327 2752.87C946.634 2756.74 918.565 2757.13 890.776 2754.03C880.145 2753.7 879.979 2770.47 890.776 2770.64Z"/><path fill="#474CDC" d="M1122.66 2603.54C1090.6 2622.47 1078.48 2668.98 1088.94 2703.37C1091.76 2713.66 1107.88 2709.18 1104.89 2698.88C1103.56 2695.72 1096.58 2675.79 1108.87 2645.06C1108.88 2644.93 1108.94 2644.82 1109.04 2644.73V2644.4C1114.02 2633.93 1117.68 2627.95 1125.98 2620.98C1123.99 2622.8 1125.98 2620.98 1126.65 2620.64C1139.77 2616.82 1136.11 2598.22 1122.66 2603.54Z"/><path fill="#474CDC" d="M1008.21 2619.98C1008.08 2620.29 1008.02 2620.64 1008.05 2620.98C1008.21 2620.81 1008.21 2620.48 1008.21 2619.98Z"/><path fill="#474CDC" d="M1018.01 2604.7L1017.51 2605.03C1017.68 2605.03 1018.01 2604.86 1018.01 2604.7Z"/><path fill="#474CDC" d="M1010.87 2632.94L1010.54 2632.61L1010.87 2632.94Z"/><path fill="#474CDC" d="M1106.88 2518.49C1077.81 2512.68 1056.72 2565.83 1062.03 2589.58C964.693 2547.89 965.856 2723.63 1078.64 2615.99C1079.8 2616.23 1080.99 2616.22 1082.14 2615.97C1083.29 2615.71 1084.37 2615.21 1085.31 2614.51C1086.25 2613.8 1087.04 2612.9 1087.6 2611.87C1088.17 2610.84 1088.51 2609.69 1088.61 2608.52C1093.92 2601.54 1091.93 2592.41 1094.09 2584.27C1104.55 2566.83 1135.78 2533.11 1106.88 2518.49ZM1009.04 2629.95C1008.88 2629.62 1008.88 2629.78 1009.04 2629.95V2629.95ZM1057.38 2612.34L1056.38 2613.17C1044.59 2621.48 1032.63 2631.94 1018.35 2635.59C1016.98 2635.86 1015.56 2635.75 1014.24 2635.29C1012.93 2634.82 1011.77 2634.01 1010.87 2632.94H1010.54C1008.29 2629.51 1007.4 2625.36 1008.05 2621.31C1007.88 2621.31 1008.21 2620.31 1008.05 2620.15H1008.21C1008.83 2616.41 1010.43 2612.91 1012.86 2610.01C1012.37 2610.35 1012.86 2609.85 1013.2 2609.52C1014.51 2607.95 1015.95 2606.51 1017.51 2605.2H1017.35L1018.01 2604.87C1031.3 2593.74 1049.07 2601.54 1062.7 2608.19L1057.38 2612.34ZM1102.23 2536.1C1101.98 2537.55 1101.64 2539 1101.23 2540.42C1097.58 2553.04 1083.13 2566.83 1077.81 2580.95C1077.62 2578.62 1077.67 2576.28 1077.98 2573.97V2573.64C1079.14 2563.34 1091.93 2536.26 1102.06 2534.44C1102.2 2534.98 1102.26 2535.54 1102.23 2536.1Z"/><path fill="#474CDC" d="M1013.2 2609.35L1012.86 2609.85L1013.2 2609.35Z"/><path fill="#474CDC" d="M900.908 2652.37C891.606 2647.06 883.301 2661.34 892.603 2666.66C903.745 2671.97 912.395 2681.39 916.732 2692.94C921.069 2704.5 920.756 2717.29 915.858 2728.62C912.868 2738.75 928.98 2743.23 931.97 2732.93C944.096 2703.2 929.977 2666.33 900.908 2652.37Z"/><path fill="#F34886" d="M408.736 2361.69C350.897 2381.24 299.224 2415.67 258.908 2461.52C252.43 2468.99 245.952 2476.96 243.46 2486.6C237.481 2509.52 254.257 2531.94 269.871 2550.05L343.622 2635.1C371.362 2667.15 399.6 2699.55 435.645 2721.64C460.229 2732.93 482.321 2740.41 508.4 2734.93C627.331 2710.34 480.992 2605.7 547.767 2511.01L408.736 2361.69Z"/><path fill="#091C59" d="M538.797 2584.77C536.139 2573.8 538.797 2544.24 544.278 2534.1C557.567 2507.69 562.55 2513.17 539.794 2490.42C498.156 2445.57 456.519 2400.78 414.882 2356.04C413.611 2354.56 411.833 2353.61 409.899 2353.38H409.566C408.558 2353.24 407.53 2353.36 406.577 2353.71C350.196 2372.63 299.474 2405.42 259.074 2449.06C238.81 2467.66 225.521 2496.07 240.304 2522.14C270.37 2571.15 314.388 2610.84 350.599 2655.69C380.498 2688.58 411.726 2724.46 455.08 2738.58C491.789 2751.87 553.58 2745.56 564.211 2701.04C568.53 2660.68 542.784 2624.47 538.797 2584.77ZM545.94 2704.86C543.946 2710.01 535.143 2717.65 527.17 2720.81C518.904 2724 510.332 2726.34 501.589 2727.78C482.487 2730.27 466.209 2725.62 447.771 2717.98C440.96 2715.82 428.17 2707.19 420.363 2701.04C365.216 2654.86 316.547 2589.42 267.048 2533.77C264.224 2530.12 256.583 2518.99 253.759 2511.85C253.925 2512.34 254.091 2512.51 254.091 2512.34C252.45 2508.46 251.279 2504.38 250.603 2500.22C250.271 2497.89 250.271 2489.75 252.929 2484.27C252.43 2485.93 253.427 2483.61 253.593 2483.11C255.09 2480.21 256.812 2477.43 258.742 2474.8L259.739 2473.31C294.272 2431.7 338.391 2399.09 388.305 2378.3C391.295 2375.64 399.766 2374.31 406.743 2371.65L537.302 2512.01C490.626 2587.76 560.059 2655.69 545.94 2704.86Z"/><path fill="#091C59" d="M281.167 2437.27C313.889 2538.09 394.285 2614.33 476.507 2677.12C499.098 2693.73 524.512 2708.18 552.418 2712.5C562.882 2715.16 567.367 2699.05 556.902 2696.39C546.546 2694.84 536.438 2691.94 526.837 2687.75C512.718 2682.11 489.297 2666.82 477.836 2657.52C422.689 2613.67 369.535 2565.67 332.493 2507.2C322.391 2491.11 313.508 2474.28 305.916 2456.87C299.77 2448.06 301.099 2425.14 286.98 2426.97C282.828 2428.3 279.672 2432.78 281.167 2437.27Z"/><path fill="#474CDC" d="M530.99 2580.78C500.261 2558.19 452.09 2566.66 424.682 2591.08C416.211 2604.04 432.655 2610.18 440.795 2599.05L441.625 2598.39C460.229 2583.77 492.786 2581.61 512.386 2588.59C514.867 2589.62 517.21 2590.96 519.363 2592.57C527.004 2600.05 538.797 2588.25 530.99 2580.78Z"/><path fill="#474CDC" d="M534.645 2545.73C534.912 2545.83 535.208 2545.83 535.475 2545.73H534.645Z"/><path fill="#474CDC" d="M470.195 2481.95H469.365C469.198 2482.11 469.365 2482.28 470.195 2481.95Z"/><path fill="#474CDC" d="M600.92 2531.45C595.771 2501.05 536.804 2503.87 517.535 2518.82C515.542 2413.68 355.084 2486.43 500.094 2544.9C500.396 2546.05 500.93 2547.12 501.664 2548.05C502.397 2548.98 503.315 2549.75 504.359 2550.31C505.403 2550.87 506.551 2551.21 507.732 2551.31C508.913 2551.41 510.101 2551.26 511.223 2550.88C519.695 2552.38 527.003 2547.73 534.644 2545.73H538.132C557.401 2549.22 598.097 2561.01 600.92 2531.45ZM583.978 2531.28L583.645 2530.95L583.978 2531.28ZM583.313 2530.45L582.981 2530.12L583.313 2530.45ZM456.408 2496.23C456.408 2496.41 456.467 2496.59 456.574 2496.73C456.514 2496.66 456.469 2496.58 456.44 2496.5C456.411 2496.41 456.401 2496.32 456.408 2496.23ZM458.069 2499.39C458.18 2499.6 458.354 2499.78 458.568 2499.89C458.457 2499.89 458.291 2499.72 458.069 2499.39ZM492.785 2522.98C482.155 2516.17 457.737 2506.37 455.91 2493.24C455.91 2493.24 456.076 2491.75 456.076 2492.41C456.81 2489.5 458.582 2486.96 461.059 2485.27L464.714 2483.28H465.212C466.878 2482.66 468.604 2482.21 470.361 2481.95H470.195C495.775 2479.79 503.25 2506.37 500.925 2527.13L492.785 2522.98ZM583.147 2532.94H582.981C582.317 2533.44 582.815 2533.11 583.147 2532.94ZM583.147 2532.94C566.038 2537.59 548.929 2528.46 531.82 2529.62C543.116 2522.98 575.174 2522.48 584.144 2532.11C584.31 2532.11 584.31 2532.11 584.31 2531.95H584.144L583.147 2532.94ZM584.476 2531.95C584.476 2531.78 584.476 2531.61 584.642 2531.61L584.476 2531.95Z"/><path fill="#474CDC" d="M456.076 2492.58C455.944 2492.77 455.885 2493.01 455.91 2493.24C456.042 2493.05 456.101 2492.81 456.076 2492.58Z"/><path fill="#474CDC" d="M376.677 2397.73C376.511 2420.49 358.074 2440.59 335.483 2443.41C312.893 2446.23 321.862 2477.3 366.379 2448.56C374.493 2442.75 381.148 2435.13 385.817 2426.31C390.487 2417.49 393.044 2407.71 393.288 2397.73C393.454 2386.93 376.677 2386.93 376.677 2397.73Z"/><path fill="#BEE1FF" fill-rule="evenodd" d="M819.018 1266.38C812.208 1274.85 811.709 1312.39 800.746 1316.71C823.835 1366.71 822.838 1409.73 804.401 1467.87C758.389 1421.19 501.091 1325.85 435.978 1334.99C513.881 1183.99 612.216 1180.34 761.711 1194.63C632.315 1108.75 455.412 1170.04 400.431 1326.51C381.329 1379.5 374.352 1445.11 368.705 1509.06C362.725 1576.5 395.614 1641.95 453.751 1676.5C547.435 1735.47 678.16 1741.61 743.274 1638.63C761.213 1607.4 805.397 1547.93 821.842 1516.87C861.873 1445.45 860.212 1331.83 819.018 1266.38Z" clip-rule="evenodd"/><path fill="#091C59" fill-rule="evenodd" d="M819.516 1256.42C801.411 1256.58 804.733 1296.12 796.261 1307.74C793.956 1308.92 792.19 1310.94 791.325 1313.38C790.46 1315.82 790.562 1318.5 791.61 1320.87C810.713 1362.06 813.204 1399.44 799.251 1450.43C720.185 1397.44 546.106 1333.32 452.754 1324.69C527.336 1192.63 619.857 1191.14 760.715 1204.59C762.942 1204.83 765.185 1204.31 767.08 1203.12C768.976 1201.92 770.414 1200.12 771.162 1198.01C771.911 1195.9 771.926 1193.6 771.206 1191.48C770.486 1189.36 769.072 1187.54 767.193 1186.32C736.291 1165.76 701.082 1152.57 664.278 1147.76C627.474 1142.95 590.057 1146.65 554.909 1158.58C406.577 1204.76 365.382 1364.05 358.738 1508.23C343.29 1638.3 477.338 1730.48 593.778 1728.82C659.556 1729.16 717.693 1699.09 751.911 1643.61C770.017 1612.22 814.201 1552.58 830.645 1521.52C870.345 1452.59 875.826 1310.57 819.516 1256.42ZM633.145 1165.56C660.593 1165.59 687.797 1170.71 713.374 1180.67C578.995 1170.71 493.118 1201.6 427.008 1330.5C426.505 1331.31 426.166 1332.22 426.011 1333.16C419.913 1333.18 413.838 1333.91 407.905 1335.32L409.733 1329.84C442.954 1233 532.817 1165.56 633.145 1165.56ZM734.636 1633.48C672.678 1731.31 548.93 1724.84 458.9 1667.86C404.417 1635.64 373.023 1573.51 378.671 1509.9C382.99 1460.23 388.471 1408.57 399.6 1363.72C422.191 1392.13 498.932 1434.65 594.609 1469.53C690.286 1504.41 777.491 1521.19 812.041 1513.22C800.86 1535.96 787.213 1557.41 771.345 1577.17C756.894 1598.6 743.274 1618.69 734.636 1633.48ZM823.337 1487.31C819.943 1482.63 816.044 1478.34 811.709 1474.51C812.766 1473.5 813.564 1472.25 814.035 1470.86C833.303 1409.73 832.971 1366.55 812.706 1319.21C817.191 1312.73 819.516 1303.09 821.676 1292.79C848.751 1357.91 846.758 1425.18 823.337 1487.31Z" clip-rule="evenodd"/><path fill="#fff" d="M740.117 1574.68C703.487 1572.55 667.156 1566.82 631.65 1557.57C633.311 1546.27 655.237 1499.1 639.955 1496.44C637.841 1495.88 635.591 1496.18 633.694 1497.26C631.797 1498.35 630.406 1500.15 629.823 1502.25C625.836 1519.36 621.019 1536.31 615.704 1553.08C574.928 1541.27 535.637 1524.83 498.599 1504.08C505.089 1488.47 513.042 1473.51 522.352 1459.4C522.914 1458.47 523.283 1457.43 523.437 1456.35C523.59 1455.27 523.526 1454.17 523.247 1453.12C522.968 1452.07 522.481 1451.08 521.813 1450.22C521.146 1449.36 520.313 1448.64 519.362 1448.1C505.243 1440.3 490.128 1485.64 484.148 1495.78C459.234 1480.87 435.52 1464.04 413.221 1445.45C409.899 1442.62 404.749 1441.96 401.427 1445.45C398.105 1448.93 397.939 1454.25 401.427 1457.24C425.448 1477.4 451.119 1495.52 478.168 1511.39C472.092 1528.96 467.807 1547.11 465.378 1565.54C443.636 1552.85 422.67 1538.87 402.59 1523.68C399.102 1521.02 393.122 1523.02 391.129 1526.67C381.827 1539.96 452.089 1575.17 463.551 1583.65C463.052 1596.27 460.561 1674.84 480.161 1669.02C482.258 1668.37 484.027 1666.94 485.107 1665.03C486.187 1663.11 486.498 1660.86 485.975 1658.73C480.886 1637.02 478.762 1614.73 479.663 1592.45C512.441 1609.86 546.679 1624.36 581.984 1635.8C573.125 1653.52 563.491 1670.8 553.082 1687.63C552.52 1688.56 552.151 1689.6 551.997 1690.68C551.844 1691.76 551.908 1692.86 552.187 1693.91C552.466 1694.96 552.953 1695.95 553.621 1696.81C554.288 1697.67 555.122 1698.39 556.072 1698.92C568.53 1709.06 591.286 1650.42 597.931 1640.79C630.321 1648.93 664.373 1660.55 697.594 1660.05C703.74 1657.06 702.577 1646.27 695.601 1644.94C665.039 1640.72 634.835 1634.22 605.239 1625.5C613.046 1608.4 620.023 1590.95 626.335 1573.18C639.457 1576.17 753.24 1604.08 748.423 1582.98C748.423 1581.89 748.208 1580.81 747.79 1579.8C747.373 1578.8 746.761 1577.88 745.99 1577.11C745.219 1576.34 744.303 1575.73 743.296 1575.31C742.288 1574.89 741.208 1574.68 740.117 1574.68ZM597.598 1601.75C597.764 1601.42 597.93 1600.92 597.764 1601.59L597.598 1601.75ZM607.066 1577.83C601.751 1592.45 595.771 1606.73 589.293 1620.69C551.811 1608.69 515.548 1593.18 480.992 1574.34C482.904 1555.8 486.859 1537.53 492.785 1519.86C530.111 1540.38 569.54 1556.8 610.388 1568.86L607.066 1577.83Z"/></svg>