<?xml version="1.0" standalone="no"?>
<!DOCTYPE svg PUBLIC "-//W3C//DTD SVG 20010904//EN"
 "http://www.w3.org/TR/2001/REC-SVG-20010904/DTD/svg10.dtd">
<svg version="1.0" xmlns="http://www.w3.org/2000/svg"
 width="512.000000pt" height="512.000000pt" viewBox="0 0 512.000000 512.000000"
 preserveAspectRatio="xMidYMid meet">

<g transform="translate(0.000000,512.000000) scale(0.100000,-0.100000)"
fill="#ffbd39" stroke="none">
<path d="M2387 5105 c-330 -63 -600 -263 -747 -555 -166 -329 -142 -711 64
-1033 48 -75 175 -208 251 -261 l63 -46 23 -97 c16 -65 31 -106 46 -120 l22
-23 451 0 451 0 22 22 c15 15 30 56 46 121 l23 97 63 46 c76 53 203 186 251
261 234 366 231 803 -7 1155 -134 197 -358 353 -595 414 -126 33 -311 41 -427
19z m343 -167 c216 -41 423 -179 549 -368 99 -148 144 -297 144 -475 0 -120
-12 -194 -49 -298 -60 -170 -172 -316 -327 -424 -42 -30 -81 -62 -86 -71 -5
-10 -17 -52 -27 -94 l-18 -78 -356 0 -356 0 -18 78 c-10 42 -22 84 -27 94 -5
9 -44 41 -86 71 -155 108 -267 254 -327 424 -37 104 -49 178 -49 298 0 178 45
327 144 475 195 291 541 434 889 368z"/>
<path d="M2245 3825 c-14 -13 -25 -36 -25 -50 0 -51 103 -438 122 -457 22 -22
75 -24 105 -3 36 25 35 57 -2 204 -19 77 -35 147 -35 155 0 14 21 16 150 16
129 0 150 -2 150 -16 0 -8 -16 -78 -35 -155 -37 -147 -38 -179 -2 -204 30 -21
83 -19 105 3 19 19 122 406 122 457 0 14 -11 37 -25 50 l-24 25 -291 0 -291 0
-24 -25z"/>
<path d="M2128 2803 c-53 -8 -86 -84 -55 -124 29 -38 46 -39 487 -39 309 0
438 3 453 12 52 27 62 80 23 125 l-24 28 -429 1 c-235 1 -440 0 -455 -3z"/>
<path d="M1050 2467 c-20 -10 -53 -80 -182 -387 -86 -206 -157 -388 -158 -403
-1 -70 38 -87 191 -87 l109 0 0 -770 0 -771 25 -24 24 -25 756 0 c658 0 760 2
785 15 17 9 31 17 32 18 2 1 5 440 8 975 l5 973 69 -168 c46 -114 78 -177 97
-195 l29 -28 744 0 c517 0 753 3 775 11 36 13 51 35 51 76 -1 15 -72 197 -158
403 -129 307 -162 377 -182 387 -37 19 -2983 19 -3020 0z m1376 -174 c-4 -10
-55 -134 -113 -275 l-107 -258 -649 0 c-356 0 -646 3 -644 8 5 7 202 478 218
520 l9 22 646 0 c611 0 646 -1 640 -17z m1628 -163 c40 -96 91 -219 114 -272
l41 -98 -648 0 -647 0 -107 258 c-58 141 -109 265 -113 275 -6 16 27 17 641
15 l646 -3 73 -175z m-1574 -1060 l0 -910 -655 0 -655 0 0 715 0 715 555 0
555 0 29 28 c19 18 51 81 97 195 38 92 70 167 71 167 2 0 3 -409 3 -910z"/>
<path d="M3994 1418 c-12 -5 -27 -21 -33 -34 -8 -18 -11 -205 -11 -624 l0
-600 -548 0 -549 0 -21 -23 c-32 -34 -30 -89 4 -116 26 -21 35 -21 626 -21
l599 0 24 25 25 24 0 660 c0 363 -3 667 -6 676 -7 17 -55 45 -76 44 -7 0 -23
-5 -34 -11z"/>
</g>
</svg>
