<?xml version="1.0" standalone="no"?>
<!DOCTYPE svg PUBLIC "-//W3C//DTD SVG 20010904//EN"
 "http://www.w3.org/TR/2001/REC-SVG-20010904/DTD/svg10.dtd">
<svg version="1.0" xmlns="http://www.w3.org/2000/svg"
 width="512.000000pt" height="512.000000pt" viewBox="0 0 512.000000 512.000000"
 preserveAspectRatio="xMidYMid meet">

<g transform="translate(0.000000,512.000000) scale(0.100000,-0.100000)"
fill="#ffbd39" stroke="none">
<path d="M467 4759 c-107 -25 -211 -112 -261 -219 l-31 -65 -3 -1605 c-2
-1122 1 -1621 8 -1657 25 -117 116 -240 218 -292 100 -51 102 -51 912 -51
l755 0 52 -68 c67 -88 210 -226 292 -281 140 -95 307 -155 470 -167 224 -17
528 62 706 183 105 71 213 192 269 301 l17 32 347 0 c370 0 413 4 504 51 102
52 193 175 218 292 7 36 10 535 8 1657 l-3 1605 -33 67 c-42 86 -109 153 -192
192 l-65 31 -2075 2 c-1185 0 -2091 -3 -2113 -8z m1683 -526 l-188 -398 -826
-3 -826 -2 0 293 c0 337 4 362 75 432 77 77 20 73 1041 74 l912 1 -188 -397z
m2495 380 c63 -21 127 -85 148 -148 14 -41 17 -95 17 -342 l0 -293 -1345 0
c-740 0 -1345 3 -1345 6 0 4 81 178 180 387 99 209 180 386 180 393 0 12 172
14 1058 14 959 0 1063 -2 1107 -17z m165 -2136 c0 -1391 7 -1281 -89 -1378
-87 -87 -99 -89 -483 -89 -300 0 -319 1 -314 18 28 91 32 234 11 355 -20 112
-39 163 -249 657 -191 447 -202 467 -293 510 -51 24 -147 27 -197 6 -45 -19
-111 -79 -126 -115 -10 -26 -15 -29 -37 -20 -41 15 -135 10 -178 -10 -45 -21
-100 -72 -121 -113 -12 -24 -17 -26 -40 -18 -63 24 -165 5 -229 -44 -41 -32
-24 -58 -141 219 -76 181 -95 216 -134 256 -173 174 -471 34 -447 -210 4 -43
45 -150 171 -445 91 -214 166 -394 166 -400 -1 -6 -18 -23 -39 -38 -46 -31
-96 -102 -124 -172 -38 -97 -25 -243 34 -373 l28 -63 -708 0 c-821 0 -778 -4
-872 89 -96 97 -89 -13 -89 1378 l0 1213 2250 0 2250 0 0 -1213z m-2726 141
c28 -27 71 -119 235 -507 110 -260 208 -482 217 -492 36 -40 114 -9 114 45 0
13 -31 98 -70 188 -38 91 -70 174 -70 185 0 34 43 87 80 99 38 13 82 4 111
-22 10 -9 57 -109 104 -222 87 -206 115 -252 156 -252 24 0 69 43 69 66 0 9
-40 112 -90 229 -95 224 -106 270 -72 311 42 52 118 60 161 17 16 -17 62 -110
115 -236 49 -114 95 -214 103 -222 39 -39 113 -9 113 46 0 15 -40 122 -90 237
-50 118 -90 225 -90 242 0 47 56 100 104 100 54 0 91 -23 113 -72 71 -152 375
-884 388 -933 84 -314 -52 -646 -328 -804 -139 -79 -389 -137 -552 -127 -221
13 -391 95 -568 274 -249 250 -354 504 -275 657 29 56 73 102 82 86 4 -5 40
-90 81 -188 42 -98 83 -184 92 -190 38 -29 113 4 113 49 0 10 -122 305 -271
656 -149 350 -273 654 -276 674 -11 78 43 138 125 138 34 0 49 -6 76 -32z"/>
<path d="M761 4394 c-140 -70 -170 -252 -61 -362 146 -146 391 -45 390 160 -1
171 -176 278 -329 202z m163 -140 c37 -37 35 -86 -3 -125 -16 -16 -39 -29 -51
-29 -35 0 -76 27 -89 58 -37 88 75 163 143 96z"/>
<path d="M1399 4392 c-77 -40 -119 -111 -119 -199 0 -78 22 -126 81 -176 84
-72 205 -72 289 0 55 47 79 102 80 176 0 173 -177 280 -331 199z m166 -137
c48 -47 25 -135 -40 -151 -55 -14 -105 28 -105 88 0 79 90 119 145 63z"/>
<path d="M2651 4234 c-27 -35 -26 -59 4 -89 l24 -25 914 0 c910 0 914 0 941
21 32 25 35 70 6 99 -20 20 -33 20 -944 20 l-925 0 -20 -26z"/>
<path d="M1835 3344 c-262 -58 -473 -227 -583 -464 -60 -129 -76 -203 -76
-355 0 -200 50 -355 118 -363 32 -4 76 30 76 60 0 9 -12 53 -27 95 -24 69 -27
93 -27 208 0 114 3 140 27 210 38 114 91 199 178 286 167 166 419 236 645 179
203 -52 364 -178 455 -356 17 -35 38 -69 45 -75 23 -19 75 -6 97 23 20 26 20
28 3 72 -26 68 -105 183 -172 250 -102 101 -242 183 -379 221 -88 24 -292 29
-380 9z"/>
<path d="M1890 3064 c-196 -42 -359 -195 -416 -389 -34 -119 -12 -326 42 -386
36 -40 114 -10 114 45 0 14 -5 37 -11 53 -49 128 -19 296 73 407 84 102 241
160 371 137 127 -21 233 -93 293 -197 40 -72 53 -84 89 -84 32 0 56 19 68 52
3 10 -9 47 -29 87 -66 133 -214 243 -369 276 -85 18 -140 18 -225 -1z"/>
</g>
</svg>
