<?xml version="1.0" standalone="no"?>
<!DOCTYPE svg PUBLIC "-//W3C//DTD SVG 20010904//EN"
 "http://www.w3.org/TR/2001/REC-SVG-20010904/DTD/svg10.dtd">
<svg version="1.0" xmlns="http://www.w3.org/2000/svg"
 width="512.000000pt" height="512.000000pt" viewBox="0 0 512.000000 512.000000"
 preserveAspectRatio="xMidYMid meet">

<g transform="translate(0.000000,512.000000) scale(0.100000,-0.100000)"
fill="#ffbd39" stroke="none">
<path d="M243 4749 c-64 -25 -130 -87 -163 -154 l-25 -50 0 -1745 0 -1745 27
-52 c34 -64 86 -115 147 -145 l46 -23 768 -3 767 -2 0 -224 c0 -203 2 -224 18
-239 10 -10 27 -17 36 -17 10 0 117 68 238 151 121 83 225 148 231 146 7 -3
107 -71 222 -151 116 -80 220 -146 232 -146 47 0 53 27 53 262 l0 218 743 2
742 3 50 27 c64 34 118 90 147 153 l23 50 3 734 3 734 75 70 c214 200 293 457
238 776 l-16 93 111 112 c62 64 111 121 111 132 0 29 -229 254 -259 254 -16 0
-51 -27 -115 -90 l-92 -90 -31 23 -32 22 -3 350 c-3 344 -3 351 -27 403 -32
71 -115 147 -183 167 -46 13 -288 15 -2042 14 -1968 0 -1992 0 -2043 -20z
m4099 -114 c23 -17 53 -49 65 -70 22 -39 23 -47 23 -354 0 -294 -1 -313 -17
-306 -156 65 -342 83 -494 47 -365 -87 -609 -395 -609 -767 0 -327 197 -618
497 -733 111 -43 196 -56 332 -49 107 4 189 22 284 62 17 7 17 -27 15 -698
l-3 -705 -30 -43 c-16 -23 -48 -52 -70 -63 -39 -21 -52 -21 -767 -24 l-728 -3
0 120 0 119 50 12 c27 7 76 29 109 50 106 68 162 168 175 309 8 95 30 142 99
220 74 82 100 150 100 256 0 107 -25 170 -108 269 -73 88 -81 107 -94 229 -13
109 -51 187 -128 257 -64 59 -136 88 -247 99 -93 9 -126 24 -210 94 -96 79
-153 102 -261 102 -80 0 -97 -3 -155 -31 -36 -18 -90 -54 -120 -81 -74 -67
-87 -73 -190 -84 -122 -12 -188 -39 -260 -106 -80 -74 -109 -135 -125 -266
-14 -116 -25 -142 -96 -230 -130 -162 -128 -349 7 -507 64 -75 73 -97 88 -216
11 -79 22 -123 46 -170 47 -96 137 -168 244 -195 l46 -11 0 -119 0 -119 -736
0 c-554 0 -747 3 -778 12 -58 18 -120 82 -134 140 -9 35 -12 478 -12 1721 0
1850 -4 1740 63 1806 68 65 -81 60 2099 58 l1986 -2 44 -30z m-112 -779 c85
-18 172 -54 245 -100 l58 -38 -134 -135 c-74 -74 -174 -171 -222 -215 l-88
-81 -108 107 -108 108 -29 -15 c-16 -9 -78 -65 -138 -125 -85 -86 -108 -116
-108 -137 0 -22 41 -69 223 -252 123 -123 239 -231 257 -240 l34 -16 323 323
c217 217 325 318 330 310 17 -27 17 -233 1 -310 -30 -143 -125 -299 -233 -385
-138 -109 -295 -160 -468 -152 -180 8 -332 75 -454 198 -79 80 -132 166 -168
274 -23 70 -27 96 -27 210 0 114 4 140 27 210 111 334 450 532 787 461z m290
-561 l-425 -425 -177 177 -178 178 65 65 66 65 104 -107 c57 -60 110 -108 117
-108 7 0 173 160 368 355 l355 355 65 -65 65 -65 -425 -425z m-2088 -353 c24
-10 68 -40 98 -66 81 -69 142 -96 259 -111 120 -16 176 -44 224 -112 40 -56
55 -97 56 -150 2 -111 35 -195 111 -278 68 -75 83 -108 88 -196 5 -94 -12
-137 -92 -228 -66 -76 -92 -139 -105 -256 -11 -97 -27 -134 -84 -193 -49 -50
-126 -82 -196 -82 -59 0 -158 -29 -200 -59 -17 -12 -54 -42 -82 -66 -123 -105
-250 -100 -392 16 -85 70 -152 98 -263 109 -97 10 -145 32 -200 92 -49 53 -71
109 -78 205 -8 98 -36 167 -96 237 -67 80 -83 118 -88 202 -5 86 13 134 77
207 43 50 83 122 94 167 4 14 11 65 16 114 11 97 37 154 92 200 53 45 89 58
198 72 121 16 171 37 244 104 109 99 209 121 319 72z m-466 -1807 c20 -8 63
-38 97 -66 71 -60 123 -85 203 -100 107 -20 232 20 321 102 43 39 128 87 138
77 3 -3 4 -149 3 -325 l-3 -320 -194 134 c-107 73 -200 133 -206 133 -7 0
-101 -61 -209 -135 -108 -74 -198 -135 -201 -135 -3 0 -5 146 -5 325 0 217 3
325 10 325 6 0 27 -7 46 -15z"/>
<path d="M434 4530 c-85 -19 -144 -93 -144 -181 0 -150 184 -236 296 -137 47
41 65 79 66 137 0 119 -106 207 -218 181z m93 -122 c32 -30 31 -81 -2 -113
-72 -73 -178 28 -114 109 27 34 82 36 116 4z"/>
<path d="M884 4530 c-83 -19 -136 -81 -142 -168 -8 -124 97 -211 223 -188 37
7 98 54 117 90 33 61 26 146 -17 202 -38 50 -118 78 -181 64z m93 -122 c49
-46 12 -138 -55 -138 -40 0 -82 41 -82 80 0 68 87 105 137 58z"/>
<path d="M1324 4531 c-47 -12 -88 -39 -114 -79 -20 -29 -25 -48 -25 -102 0
-58 4 -72 28 -103 98 -129 292 -88 328 70 9 44 -7 110 -36 149 -39 51 -119 80
-181 65z m93 -123 c49 -46 12 -138 -55 -138 -39 0 -82 43 -82 82 0 66 88 102
137 56z"/>
<path d="M1861 4530 c-49 -12 -83 -40 -108 -90 -46 -89 -16 -193 67 -237 l43
-23 1112 0 1112 0 43 23 c120 63 116 252 -7 313 -37 18 -78 19 -1133 21 -602
0 -1110 -3 -1129 -7z m2234 -120 c27 -30 25 -88 -4 -111 -22 -18 -63 -19
-1118 -19 l-1094 0 -24 25 c-14 13 -25 34 -25 45 0 24 18 61 34 72 6 4 506 8
1112 8 1097 0 1101 0 1119 -20z"/>
<path d="M1378 3977 c-8 -8 -40 -71 -73 -140 l-58 -125 -146 -23 c-148 -24
-181 -38 -181 -75 0 -10 48 -66 107 -125 l106 -108 -22 -133 c-27 -170 -27
-186 3 -199 21 -10 42 -2 163 59 l139 70 129 -69 c72 -37 137 -69 146 -69 9 0
24 9 34 20 17 19 17 25 -7 167 l-25 148 104 106 c152 156 146 172 -77 209 -74
12 -136 23 -138 25 -1 1 -33 63 -70 136 -58 116 -70 134 -93 137 -15 2 -33 -3
-41 -11z m141 -348 c10 -8 59 -21 107 -28 49 -8 95 -16 101 -20 9 -4 -13 -32
-62 -81 -84 -84 -83 -79 -59 -214 8 -48 13 -90 11 -92 -2 -2 -48 19 -102 47
l-98 52 -103 -51 c-119 -59 -112 -65 -88 75 l16 95 -82 83 c-93 94 -97 84 45
106 44 6 88 16 98 21 11 6 39 53 64 106 l45 97 44 -90 c24 -49 53 -97 63 -106z"/>
<path d="M718 2908 c-9 -7 -33 -51 -53 -98 -20 -47 -40 -89 -44 -93 -5 -4 -53
-15 -107 -23 -152 -22 -160 -49 -49 -163 l74 -77 -14 -97 c-24 -157 -1 -174
134 -99 l88 49 96 -49 c142 -73 157 -61 136 103 l-12 99 76 79 c43 43 77 83
77 89 0 5 -8 19 -17 31 -14 16 -40 24 -117 36 -54 8 -100 16 -101 17 -2 2 -22
41 -45 88 -60 121 -81 139 -122 108z m62 -218 c31 -67 45 -77 113 -85 31 -4
57 -10 57 -13 0 -4 -21 -27 -46 -53 l-46 -47 9 -66 c5 -36 8 -66 6 -66 -2 0
-31 14 -64 31 l-61 30 -58 -30 -59 -31 6 71 6 70 -47 48 -48 48 62 7 c70 8 88
22 116 89 10 26 22 47 25 47 3 0 16 -22 29 -50z"/>
<path d="M3596 2255 c-94 -39 -118 -72 -78 -108 25 -23 37 -22 117 12 91 39
114 70 79 105 -21 22 -49 19 -118 -9z"/>
<path d="M3638 2059 c-21 -12 -24 -59 -6 -77 8 -8 48 -12 113 -12 106 0 125 7
125 45 0 42 -29 55 -126 55 -49 0 -97 -5 -106 -11z"/>
<path d="M3510 1880 c-20 -37 -2 -59 85 -102 88 -44 108 -44 127 -4 15 34 1
49 -84 92 -78 39 -113 43 -128 14z"/>
<path d="M2162 2640 c-177 -47 -331 -171 -410 -331 -55 -112 -76 -207 -69
-324 15 -243 147 -442 362 -545 105 -50 170 -65 285 -64 181 1 315 58 446 189
136 135 202 303 191 485 -26 410 -411 693 -805 590z m88 -95 c0 -5 -119 -247
-125 -253 -2 -2 -280 -52 -293 -52 -9 0 54 100 82 130 44 48 113 104 156 125
76 39 180 68 180 50z m305 -38 c84 -40 175 -120 227 -201 21 -33 37 -61 35
-62 -2 -2 -68 8 -148 21 -79 14 -145 25 -146 25 -2 0 -33 59 -69 131 l-66 132
49 -7 c26 -3 80 -21 118 -39z m-87 -311 c9 -3 73 -15 142 -26 68 -12 126 -23
127 -24 2 -2 -43 -48 -99 -103 l-101 -101 22 -137 c13 -75 20 -139 17 -142 -2
-3 -57 22 -120 56 -63 33 -122 61 -131 61 -9 0 -68 -28 -131 -61 -63 -34 -118
-59 -120 -56 -3 3 4 67 17 143 l23 137 -103 99 c-57 55 -101 101 -99 103 2 2
62 14 133 26 72 12 136 26 143 32 8 6 41 65 74 131 l60 120 65 -126 c35 -71
72 -129 81 -132z m-489 -436 l-24 -143 -41 48 c-79 89 -134 234 -134 355 0
103 2 103 117 -12 l105 -105 -23 -143z m882 185 c-13 -96 -68 -218 -128 -284
l-40 -45 -23 145 -23 146 104 101 104 100 9 -41 c5 -26 4 -73 -3 -122z m-416
-336 c63 -33 117 -64 120 -69 8 -13 -102 -50 -175 -59 -36 -5 -95 -5 -131 0
-66 8 -179 44 -179 57 0 7 228 130 243 131 4 1 59 -26 122 -60z"/>
</g>
</svg>
