<?xml version="1.0" standalone="no"?>
<!DOCTYPE svg PUBLIC "-//W3C//DTD SVG 20010904//EN"
 "http://www.w3.org/TR/2001/REC-SVG-20010904/DTD/svg10.dtd">
<svg version="1.0" xmlns="http://www.w3.org/2000/svg"
 width="512.000000pt" height="512.000000pt" viewBox="0 0 512.000000 512.000000"
 preserveAspectRatio="xMidYMid meet">

<g transform="translate(0.000000,512.000000) scale(0.100000,-0.100000)"
fill="#ffbd39" stroke="none">
<path d="M1465 4975 c-24 -23 -25 -29 -25 -153 l0 -129 -77 -28 c-43 -16 -114
-45 -158 -66 l-80 -38 -91 90 c-140 137 -104 153 -471 -214 -367 -367 -351
-331 -214 -471 l90 -91 -38 -80 c-21 -44 -50 -115 -66 -157 l-28 -78 -129 0
c-124 0 -130 -1 -153 -25 l-25 -24 0 -431 0 -431 25 -24 c23 -24 29 -25 153
-25 l129 0 28 -77 c15 -43 45 -116 66 -162 l40 -85 -91 -91 c-135 -136 -152
-98 213 -462 166 -165 312 -304 324 -308 33 -9 69 15 157 103 l78 80 92 -43
c50 -23 121 -52 159 -64 l67 -23 0 -129 c0 -125 1 -131 25 -154 l24 -25 429 0
c530 0 482 -17 482 173 l0 132 68 23 c37 13 108 43 158 66 l90 43 28 -23 c74
-64 176 9 132 94 -24 46 -104 112 -136 112 -15 0 -76 -25 -135 -55 -60 -30
-160 -71 -222 -91 -75 -24 -119 -44 -128 -58 -11 -15 -15 -51 -15 -138 l0
-118 -320 0 -320 0 0 123 c0 107 -2 126 -18 140 -10 9 -67 33 -127 53 -60 19
-157 60 -217 90 -59 30 -120 54 -135 54 -21 0 -47 -20 -113 -85 l-85 -85 -225
225 -224 224 82 84 c105 108 105 103 26 260 -29 59 -68 154 -85 210 -44 144
-49 147 -200 147 l-119 0 2 318 3 317 121 3 c147 3 146 2 194 151 18 57 57
152 86 210 77 152 77 150 -28 258 l-82 84 221 221 222 222 85 -82 c109 -105
102 -104 261 -27 61 30 156 69 212 88 144 47 142 44 145 191 l3 121 318 3 317
2 0 -119 c0 -151 3 -156 147 -200 56 -17 151 -56 210 -85 157 -79 152 -79 260
26 l84 82 224 -224 225 -225 -85 -85 c-65 -66 -85 -92 -85 -113 0 -15 24 -76
54 -135 30 -60 71 -157 90 -217 20 -60 44 -117 53 -127 14 -16 33 -18 140 -18
l123 0 0 -320 0 -320 -118 0 c-88 0 -123 -4 -139 -15 -22 -16 -83 -189 -83
-238 0 -34 29 -66 67 -73 27 -5 37 -1 61 23 17 16 38 55 48 86 l18 57 132 0
c192 0 174 -49 174 482 l0 429 -25 24 c-23 24 -29 25 -154 25 l-129 0 -23 68
c-12 37 -41 108 -64 158 l-43 92 80 78 c88 88 112 124 103 157 -4 12 -143 158
-308 325 -364 364 -326 347 -462 212 l-91 -91 -85 40 c-46 21 -119 51 -162 66
l-77 28 0 129 c0 124 -1 130 -25 153 l-24 25 -431 0 -431 0 -24 -25z"/>
<path d="M1772 3989 c-89 -15 -237 -69 -314 -114 -194 -114 -338 -291 -406
-498 -43 -127 -56 -221 -49 -347 22 -395 278 -719 664 -837 79 -24 104 -27
248 -27 127 -1 174 3 230 18 362 98 627 388 686 750 18 115 7 291 -26 401
-100 338 -380 590 -720 650 -95 16 -228 18 -313 4z m345 -180 c142 -36 292
-132 390 -251 53 -64 127 -211 148 -293 50 -199 11 -432 -100 -600 -145 -218
-372 -339 -635 -339 -138 0 -209 16 -335 79 -156 77 -265 186 -340 340 -58
119 -78 204 -78 335 0 255 122 483 333 627 179 121 399 158 617 102z"/>
<path d="M3586 2422 c-29 -9 -68 -34 -96 -61 -61 -58 -1217 -1835 -1237 -1900
-28 -95 -5 -181 71 -257 91 -90 -9 -84 1356 -84 1338 0 1258 -4 1344 71 83 73
115 178 83 272 -8 25 -279 452 -602 949 -423 652 -600 916 -636 950 -78 74
-178 95 -283 60z m153 -160 c28 -14 137 -177 627 -931 373 -573 594 -922 594
-938 0 -13 -7 -37 -15 -53 -33 -64 42 -60 -1260 -60 -1002 0 -1191 2 -1220 14
-39 17 -69 66 -63 105 2 14 271 436 597 938 620 953 612 942 681 943 14 0 40
-8 59 -18z"/>
<path d="M3644 1708 c-42 -20 -44 -41 -44 -459 l0 -400 25 -24 c32 -33 78 -33
110 0 l25 24 0 411 0 411 -25 24 c-25 26 -56 31 -91 13z"/>
<path d="M3625 615 c-20 -19 -25 -34 -25 -75 0 -62 30 -100 80 -100 50 0 80
38 80 100 0 62 -30 100 -80 100 -19 0 -40 -9 -55 -25z"/>
</g>
</svg>
